<?xml version="1.0" standalone="no"?>
<!DOCTYPE svg PUBLIC "-//W3C//DTD SVG 20010904//EN"
 "http://www.w3.org/TR/2001/REC-SVG-20010904/DTD/svg10.dtd">
<svg version="1.0" xmlns="http://www.w3.org/2000/svg"
 width="1280.000000pt" height="1696.000000pt" viewBox="0 0 1280.000000 1696.000000"
 preserveAspectRatio="xMidYMid meet">

<g transform="translate(0.000000,1696.000000) scale(0.100000,-0.100000)"
fill="#000000" stroke="none">
<path d="M690 10045 l0 -6275 5710 0 5710 0 0 6275 0 6275 -5710 0 -5710 0 0
-6275z m3486 -3820 c392 -1039 713 -1896 714 -1903 0 -10 -108 -12 -526 -10
l-526 3 -122 325 -123 325 -684 2 -684 3 -130 -328 -130 -327 -522 -3 c-304
-1 -523 2 -523 7 0 5 320 838 711 1852 391 1014 720 1868 731 1897 l20 52 540
-2 541 -3 713 -1890z m1934 -15 l0 -1900 -490 0 -490 0 0 1900 0 1900 490 0
490 0 0 -1900z m2530 1485 l0 -415 -587 -2 -588 -3 -3 -317 -2 -318 557 -2
558 -3 0 -415 0 -415 -557 -3 -558 -2 0 -325 0 -325 590 0 590 0 0 -420 0
-420 -1080 0 -1080 0 0 1900 0 1900 1080 0 1080 0 0 -415z m2066 404 c371 -36
646 -149 845 -348 168 -169 264 -373 305 -653 20 -138 15 -444 -11 -581 -84
-458 -323 -741 -735 -871 -192 -61 -269 -69 -722 -73 l-418 -5 0 -629 0 -629
-495 0 -495 0 0 1900 0 1900 808 0 c498 0 851 -4 918 -11z"/>
<path d="M2711 6343 c-111 -329 -201 -601 -201 -605 0 -5 183 -8 406 -8 321 0
405 3 401 13 -2 6 -91 275 -197 597 -105 322 -195 589 -199 593 -5 4 -99 -261
-210 -590z"/>
<path d="M9980 6835 l0 -475 153 0 c364 0 519 37 620 150 68 75 89 140 95 287
12 312 -99 459 -378 503 -36 5 -161 10 -277 10 l-213 0 0 -475z"/>
</g>
</svg>
