<?xml version="1.0" encoding="UTF-8" standalone="no"?>
<!-- Created with Inkscape (http://www.inkscape.org/) -->

<svg
   width="129.99998mm"
   height="130mm"
   viewBox="0 0 129.99998 130"
   version="1.1"
   id="svg5"
   xml:space="preserve"
   xmlns="http://www.w3.org/2000/svg"
   xmlns:svg="http://www.w3.org/2000/svg"><defs
     id="defs2" /><g
     id="layer1"
     transform="translate(-45.229508,-168.78057)"><circle
       style="display:inline;fill:#3f78bb;fill-opacity:1;fill-rule:evenodd;stroke-width:0.27238"
       id="path2488-0"
       cx="110.22951"
       cy="233.78058"
       r="65" /><path
       style="fill:#ffffff;fill-rule:evenodd;stroke-width:0.184701"
       d="m 104.30982,233.38965 c 0.0457,-13.88486 0.0317,-14.62086 -0.283,-14.79696 -0.31342,-0.1754 -0.63797,-0.49216 -1.17067,-1.14261 -0.12912,-0.15767 -0.28131,-0.55842 -0.33819,-0.89057 -0.0569,-0.33215 -0.19072,-0.78506 -0.2974,-1.00646 -0.30531,-0.63362 0.18282,-1.99357 0.98046,-2.73158 1.01165,-0.93601 2.27826,-1.45095 3.28879,-1.33705 0.46043,0.0519 0.86756,0.18565 0.90476,0.29723 0.0372,0.11157 0.17304,0.20287 0.30189,0.20287 0.27291,0 1.39726,1.03105 1.39726,1.28132 0,0.0935 0.13061,0.30051 0.29024,0.46015 0.22282,0.22281 0.69483,0.29024 2.03172,0.29024 h 1.74147 v -1.95761 c 0,-1.93347 0.007,-1.96395 0.54968,-2.47109 0.96153,-0.89821 1.87994,-0.81674 2.66168,0.23611 0.2943,0.39638 0.39736,0.84972 0.44088,1.93937 0.0957,2.39553 -0.0225,2.25322 1.87108,2.25322 1.58373,0 1.64834,-0.0167 1.96573,-0.50793 0.46522,-0.72005 1.13573,-1.31572 1.97123,-1.75121 0.58467,-0.30475 0.93669,-0.35637 1.85955,-0.27269 0.6261,0.0568 1.16813,0.19253 1.20451,0.30167 0.0364,0.10915 0.16812,0.19845 0.29275,0.19845 0.31403,0 1.41173,1.10204 1.6056,1.61195 0.15055,0.39599 0.25919,0.41976 1.91882,0.41976 h 1.75924 v -1.95357 c 0,-1.91295 0.0112,-1.9648 0.5399,-2.49347 0.66432,-0.66433 1.49538,-0.71163 2.33961,-0.13316 0.68257,0.46771 0.80938,0.95913 0.81248,3.14876 l 0.002,1.43144 h 1.85281 c 1.59691,0 1.86896,-0.0446 1.96973,-0.32323 0.10624,-0.29368 0.99631,-1.21445 1.81521,-1.87779 0.1949,-0.15789 0.74376,-0.26167 1.38385,-0.26167 1.37601,0 2.53189,0.54193 3.34433,1.56797 0.58514,0.73899 0.62331,0.87336 0.61586,2.16762 -0.005,0.90723 -0.0843,1.40524 -0.23088,1.4541 -0.12261,0.0409 -0.22293,0.18147 -0.22293,0.31244 0,0.36115 -1.60352,1.7628 -2.01669,1.7628 -0.19944,0 -0.41399,0.0831 -0.47678,0.1847 -0.17864,0.28905 -1.44774,0.21666 -2.14186,-0.12218 -0.34576,-0.16878 -0.93153,-0.5428 -1.30169,-0.83115 -0.6427,-0.50065 -0.76135,-0.52428 -2.63199,-0.52428 h -1.95897 v 10.70585 c 0,10.40796 0.0107,10.73297 0.38422,11.68062 0.21133,0.53613 0.44064,1.01713 0.50958,1.06888 0.0689,0.0517 0.3324,0.40521 0.58547,0.78546 0.25305,0.38025 0.50166,0.69204 0.55245,0.69285 0.0508,8e-4 0.31474,0.19277 0.58656,0.42655 0.91505,0.78701 2.64601,1.51535 4.00512,1.68526 0.91801,0.11476 1.63122,0.42894 2.1961,0.96739 0.27469,0.26185 0.31053,1.16997 0.0462,1.16997 -0.10159,0 -0.1847,0.12144 -0.1847,0.26986 0,0.14842 -0.18191,0.43933 -0.40423,0.64646 -0.32976,0.30722 -0.65101,0.37659 -1.74377,0.37659 -0.73674,0 -1.38415,-0.0722 -1.43869,-0.16044 -0.0545,-0.0882 -0.43627,-0.21434 -0.84829,-0.28023 -1.4235,-0.22763 -3.12627,-1.20305 -4.55627,-2.61005 -0.74362,-0.73165 -1.35203,-1.41384 -1.35203,-1.51598 0,-0.10215 -0.16108,-0.39049 -0.35795,-0.64078 -0.19688,-0.25028 -0.41368,-0.67707 -0.48178,-0.94842 -0.0681,-0.27134 -0.19062,-0.49335 -0.27227,-0.49335 -0.0816,0 -0.20748,-0.35324 -0.27965,-0.78498 -0.0722,-0.43174 -0.22492,-0.84424 -0.33946,-0.91668 -0.14964,-0.0946 -0.22491,-3.22699 -0.26741,-11.12826 l -0.0592,-10.99657 h -1.91319 c -1.32655,0 -1.98804,0.074 -2.15726,0.24121 -0.13424,0.13267 -0.38953,0.29629 -0.5673,0.36361 -0.17778,0.0673 -0.32323,0.20435 -0.32323,0.30452 0,0.10017 -0.2909,0.23671 -0.64645,0.30341 -0.35556,0.0667 -0.64646,0.19514 -0.64646,0.28542 0,0.22671 -1.61352,0.20781 -1.75466,-0.0206 -0.0628,-0.10159 -0.26955,-0.1847 -0.45947,-0.1847 -0.18991,0 -0.45514,-0.10701 -0.58937,-0.23779 -0.83951,-0.81791 -1.57067,-1.05512 -3.25217,-1.05512 -0.91937,0 -1.80305,0.0504 -1.96374,0.11211 -0.26158,0.10037 -0.29216,1.19135 -0.29216,10.42473 0,6.67585 0.0651,10.35288 0.18471,10.42677 0.10158,0.0628 0.18729,0.33782 0.19047,0.61118 0.01,0.83407 0.83097,2.2405 1.8926,3.2411 1.32305,1.24698 1.80279,1.59642 2.19172,1.59642 0.17652,0 0.36871,0.0773 0.42708,0.17174 0.0584,0.0945 0.72821,0.27209 1.48852,0.39475 0.7603,0.12265 1.38237,0.29471 1.38237,0.38236 0,0.0876 0.12845,0.15936 0.28544,0.15936 0.157,0 0.47739,0.19194 0.71199,0.42654 0.55323,0.55323 0.449,1.38897 -0.25767,2.06601 -0.47973,0.4596 -0.60553,0.48867 -1.78235,0.41174 -0.6964,-0.0455 -1.6402,-0.17803 -2.09734,-0.29445 -0.95067,-0.2421 -2.64809,-0.97219 -2.73974,-1.17841 -0.0339,-0.0762 -0.14997,-0.13852 -0.25803,-0.13852 -0.59161,0 -2.89047,-2.46594 -3.70202,-3.97108 -1.25328,-2.32441 -1.29173,-2.68782 -1.35828,-12.83676 -0.0323,-4.92691 -0.11003,-9.64373 -0.1727,-10.48181 l -0.11396,-1.52378 h -1.98641 c -1.84848,0 -2.02344,0.0318 -2.51984,0.45836 l -0.53343,0.45837 -0.10585,13.25572 c -0.0775,9.70416 -0.16537,13.39611 -0.32799,13.77972 -0.40968,0.96639 -2.28112,2.52357 -3.03286,2.52357 -0.10412,0 -0.15236,-5.7261 -0.12309,-14.61165 z m 2.16768,-15.79337 c 0.31344,-0.0627 0.90564,-0.42394 1.316,-0.80278 0.63679,-0.58788 0.74611,-0.79902 0.74611,-1.44102 0,-1.52722 -1.16009,-2.62916 -2.76793,-2.62916 -0.50935,0 -0.9261,0.0831 -0.9261,0.1847 0,0.10159 -0.11179,0.1847 -0.24842,0.1847 -0.73827,0 -1.3515,1.75572 -1.03596,2.966 0.3325,1.27536 1.40364,1.8401 2.9163,1.53756 z m 19.36817,-0.75758 c 0.59906,-0.66042 0.62997,-0.75983 0.5684,-1.82799 -0.0567,-0.9833 -0.14242,-1.20691 -0.66211,-1.72659 -1.89227,-1.89227 -5.05248,0.56806 -3.81167,2.96752 0.61562,1.19046 1.12092,1.48214 2.36984,1.36795 0.75738,-0.0693 1.00363,-0.19448 1.53554,-0.78089 z m 18.21694,0.13671 c 0.60211,-0.5479 0.6785,-0.71755 0.6785,-1.50678 0,-1.12015 -0.49427,-1.9654 -1.40966,-2.41065 -0.74866,-0.36415 -1.82524,-0.44458 -2.00732,-0.14996 -0.0628,0.10159 -0.25205,0.1847 -0.4206,0.1847 -0.16855,0 -0.4961,0.22072 -0.72791,0.49048 -0.61253,0.71285 -0.58732,2.13491 0.0546,3.07957 0.58983,0.86802 1.02061,1.05989 2.21625,0.98713 0.76062,-0.0463 1.06574,-0.17363 1.61614,-0.67449 z"
       id="path371-5" /><path
       style="fill:#ffffff;fill-rule:evenodd;stroke-width:0.184701"
       d="m 86.841883,248.0564 c -0.505349,-0.0433 -1.004044,-0.14569 -1.10821,-0.22753 -0.104164,-0.0818 -0.493903,-0.20362 -0.866087,-0.27062 -0.899136,-0.16185 -2.929147,-1.23309 -3.778414,-1.99387 -1.292844,-1.15814 -2.471195,-2.51966 -2.471195,-2.85533 0,-0.13683 -0.0635,-0.24879 -0.141097,-0.24879 -0.151945,0 -0.716373,-1.1903 -1.269961,-2.67817 -0.322765,-0.86749 -0.343606,-1.69653 -0.343606,-13.66791 0,-11.96724 0.02122,-12.81198 0.347953,-13.85261 0.191376,-0.60952 0.451671,-1.23289 0.578435,-1.38526 0.126762,-0.15238 0.287467,-0.46407 0.357122,-0.69263 0.06965,-0.22857 0.204157,-0.41558 0.298899,-0.41558 0.09474,0 0.172255,-0.0946 0.172255,-0.21013 0,-0.71844 3.141866,-3.65615 4.479012,-4.18797 0.380947,-0.15151 0.692629,-0.33868 0.692629,-0.41592 0,-0.0772 0.353242,-0.19871 0.784981,-0.26992 0.431739,-0.0712 0.890225,-0.21449 1.018855,-0.31839 0.34888,-0.28182 5.816478,-0.27311 5.910654,0.009 0.04057,0.1217 0.245536,0.22127 0.455488,0.22127 0.405244,0 2.40791,0.92035 2.511925,1.15438 0.03386,0.0762 0.175184,0.13853 0.31405,0.13853 0.138864,0 0.31895,0.10589 0.400188,0.23531 0.08123,0.12942 0.36077,0.37053 0.621186,0.53579 0.66585,0.42256 2.365608,2.18762 2.492896,2.58867 0.05835,0.18384 0.164703,0.33426 0.236342,0.33426 0.30838,0 1.42869,2.60681 1.587547,3.69403 0.0668,0.45713 0.2105,1.23223 0.31935,1.72243 0.16678,0.75111 0.14553,1.00741 -0.13515,1.62984 -0.337647,0.74878 -1.339664,1.44997 -2.072041,1.44997 -0.491914,0 -1.121548,-0.7409 -1.263261,-1.48649 -0.06665,-0.35067 -0.183206,-0.7207 -0.259012,-0.82228 -0.07581,-0.10159 -0.199062,-0.55553 -0.273899,-1.00876 -0.07484,-0.45323 -0.202954,-0.95192 -0.284702,-1.10821 -0.08175,-0.15628 -0.337561,-0.69973 -0.568473,-1.20766 -0.452954,-0.99634 -2.749593,-3.41425 -3.246684,-3.41811 -0.08048,-5.3e-4 -0.395668,-0.1323 -0.700426,-0.29261 -0.714859,-0.37602 -3.195196,-0.77506 -3.789339,-0.60963 -0.252338,0.0703 -0.691925,0.13603 -0.976857,0.14616 -0.48677,0.0173 -1.960203,0.59584 -2.41585,0.94859 -0.982435,0.76056 -1.907672,1.68462 -2.304005,2.30107 -0.785391,1.22157 -1.134284,1.92048 -1.134284,2.27218 0,0.18323 -0.09013,0.42327 -0.200292,0.53343 -0.288394,0.28839 -0.34157,23.35656 -0.05467,23.71719 0.113737,0.14297 0.262954,0.57162 0.331597,0.95257 0.06864,0.38095 0.204153,0.69263 0.301136,0.69263 0.09698,0 0.176331,0.0794 0.176331,0.1765 0,0.63464 1.916891,2.67036 3.051334,3.24048 0.404276,0.20317 0.778677,0.42716 0.832004,0.49774 0.134368,0.17787 2.532615,0.59177 3.32002,0.57299 2.513767,-0.06 4.991828,-1.40441 6.344394,-3.44214 0.358018,-0.53937 0.709205,-1.22385 0.78042,-1.52106 0.07121,-0.2972 0.193127,-0.62348 0.270912,-0.72507 0.07779,-0.10158 0.202055,-0.67442 0.276146,-1.27296 0.07409,-0.59854 0.247819,-1.30502 0.386064,-1.56996 0.138245,-0.26494 0.251867,-0.5515 0.252494,-0.6368 0.0016,-0.21133 0.780971,-0.84701 1.047859,-0.85462 0.11856,-0.003 0.59177,0.15512 1.051578,0.35221 1.035276,0.44377 1.482906,1.20148 1.356906,2.29686 -0.20391,1.77289 -0.869358,4.04911 -1.437625,4.91755 -0.09971,0.15238 -0.230129,0.4225 -0.289819,0.60028 -0.05969,0.17777 -0.176353,0.32323 -0.259244,0.32323 -0.08289,0 -0.197186,0.14545 -0.253984,0.32322 -0.209701,0.65635 -3.087071,3.3708 -3.573108,3.3708 -0.108056,0 -0.224168,0.0623 -0.25803,0.13853 -0.09386,0.21118 -1.641877,0.90248 -2.370399,1.05856 -0.355515,0.0762 -0.729507,0.2028 -0.831093,0.28141 -0.234741,0.18166 -3.217934,0.34261 -4.428146,0.23892 z"
       id="path373-7" /><path
       style="fill:#ffffff;fill-rule:evenodd;stroke-width:0.184701"
       d="m 67.931876,268.0282 c -0.258027,-0.20296 -0.954939,-1.09646 -1.548696,-1.98554 -0.593757,-0.88908 -1.127294,-1.65807 -1.18564,-1.70887 -0.463645,-0.40362 -4.049699,-7.2198 -4.049699,-7.69745 0,-0.11766 -0.06378,-0.24163 -0.14174,-0.27549 -0.07796,-0.0339 -0.384527,-0.68494 -0.681265,-1.44683 -0.296738,-0.7619 -0.597379,-1.46838 -0.668089,-1.56997 -0.07071,-0.10158 -0.190288,-0.47287 -0.265729,-0.82509 -0.07544,-0.35221 -0.203282,-0.76779 -0.284091,-0.92351 -0.385993,-0.74377 -1.231212,-3.98247 -1.495862,-5.7318 -0.09989,-0.66031 -0.254441,-1.3668 -0.343437,-1.56997 -0.089,-0.20317 -0.247816,-1.03432 -0.352935,-1.84701 -0.105119,-0.81269 -0.236805,-1.6854 -0.292635,-1.93937 -0.224896,-1.023 -0.305895,-8.12769 -0.114763,-10.06623 0.329618,-3.34313 0.576514,-5.15489 0.743524,-5.45612 0.08675,-0.15647 0.218927,-0.82139 0.293728,-1.47761 0.0748,-0.65623 0.188878,-1.27625 0.253507,-1.37784 0.06463,-0.10158 0.216385,-0.64183 0.337228,-1.20056 0.320111,-1.48002 0.869884,-3.40254 1.00354,-3.50932 0.06358,-0.0508 0.177192,-0.38326 0.252479,-0.73881 0.07529,-0.35555 0.193392,-0.72957 0.262459,-0.83116 0.06907,-0.10158 0.319373,-0.68339 0.556239,-1.29291 0.679468,-1.74844 3.389074,-7.19246 3.723161,-7.48041 0.05893,-0.0508 0.224673,-0.36248 0.368316,-0.69263 0.143642,-0.33015 0.323992,-0.60028 0.40078,-0.60028 0.07679,0 0.139615,-0.0772 0.139615,-0.17164 0,-0.0944 0.348795,-0.69699 0.7751,-1.33909 0.766503,-1.1545 0.944983,-1.3975 1.395142,-1.89946 0.126982,-0.1416 0.230876,-0.34238 0.230876,-0.44617 0,-0.10379 0.108913,-0.25518 0.242025,-0.33642 0.133114,-0.0812 0.363691,-0.32641 0.512392,-0.54483 1.164963,-1.71112 7.982765,-8.53661 9.173286,-9.18363 0.177777,-0.0966 0.389697,-0.28693 0.470935,-0.42292 0.08124,-0.13599 0.264118,-0.24726 0.4064,-0.24726 0.142282,0 0.325162,-0.10413 0.4064,-0.23141 0.198178,-0.31049 2.177709,-1.69178 3.149102,-2.19739 0.228569,-0.11897 0.415579,-0.28609 0.415579,-0.37137 0,-0.0853 0.0815,-0.15505 0.181115,-0.15505 0.09961,0 0.619088,-0.27013 1.154385,-0.60028 0.535297,-0.33015 1.388848,-0.80807 1.896777,-1.06203 0.507928,-0.25397 0.951214,-0.5241 0.985075,-0.60028 0.03386,-0.0762 0.16623,-0.13853 0.294151,-0.13853 0.127923,0 0.806701,-0.2839 1.508397,-0.63089 1.632392,-0.80721 2.389701,-1.12982 3.307527,-1.40897 0.406342,-0.12358 0.821921,-0.28954 0.923507,-0.3688 0.101584,-0.0793 0.496385,-0.20235 0.877332,-0.27354 0.380947,-0.0712 0.692629,-0.19267 0.692629,-0.26997 0,-0.0773 0.336092,-0.19429 0.746874,-0.25997 0.410781,-0.0657 0.888696,-0.19369 1.062032,-0.28445 0.367996,-0.19269 3.264789,-0.85731 4.470941,-1.02579 0.45714,-0.0639 0.99739,-0.19219 1.20056,-0.28519 0.79298,-0.36299 4.11427,-0.60006 9.3944,-0.67055 3.1346,-0.0419 5.60635,-0.002 5.72574,0.0934 0.11555,0.0919 0.99162,0.22617 1.94682,0.29849 0.95521,0.0723 1.86948,0.20521 2.03172,0.29533 0.16224,0.0901 0.79367,0.24613 1.40319,0.34671 1.92422,0.31751 3.85786,0.7689 4.46075,1.04132 0.32011,0.14464 0.75156,0.26299 0.95878,0.26299 0.20722,0 0.42231,0.0737 0.47798,0.16376 0.0557,0.0901 0.38952,0.21785 0.7419,0.28396 0.35238,0.0661 0.87277,0.24131 1.15643,0.38934 0.28365,0.14803 0.78585,0.3204 1.11601,0.38305 0.33015,0.0626 0.60028,0.18401 0.60028,0.26968 0,0.0857 0.2909,0.21036 0.64645,0.27706 0.35555,0.0667 0.64646,0.19514 0.64646,0.28542 0,0.0903 0.10389,0.16674 0.23087,0.16992 0.12699,0.003 0.64646,0.21021 1.15439,0.46006 0.50793,0.24986 1.0274,0.45505 1.15438,0.45598 0.12699,8e-4 0.2326,0.064 0.23471,0.14022 0.002,0.0762 0.45752,0.34631 1.01203,0.60028 0.5545,0.25396 1.00991,0.51764 1.01202,0.58595 0.002,0.0683 0.29474,0.22021 0.65029,0.33755 0.35555,0.11735 0.64645,0.29002 0.64645,0.38373 0,0.0937 0.11196,0.17038 0.24879,0.17038 0.13684,0 0.44046,0.16623 0.67472,0.3694 0.23426,0.20317 0.52899,0.3694 0.65496,0.3694 0.12596,0 0.27687,0.12468 0.33534,0.27706 0.0585,0.15238 0.19541,0.27705 0.30429,0.27705 0.22303,0 1.35038,0.75644 1.44515,0.96968 0.0339,0.0762 0.15156,0.13853 0.26156,0.13853 0.10999,0 0.33163,0.12658 0.49253,0.2813 0.16091,0.15471 0.62501,0.53507 1.03136,0.84525 2.41691,1.8449 5.32215,4.58971 7.59198,7.17274 0.39577,0.45039 0.89513,1.01118 1.10968,1.24621 0.21455,0.23502 0.62988,0.7808 0.92297,1.21283 0.29308,0.43203 0.63701,0.85198 0.76429,0.93322 0.12728,0.0812 0.23141,0.26824 0.23141,0.41557 0,0.14733 0.073,0.26788 0.1623,0.26788 0.0893,0 0.2631,0.24337 0.38631,0.54083 0.12321,0.29746 0.34108,0.58575 0.48416,0.64066 0.14308,0.0549 0.26014,0.22711 0.26014,0.38268 0,0.15556 0.0623,0.28293 0.13853,0.28303 0.0762,1e-4 0.36923,0.3949 0.65121,0.87733 0.28196,0.48243 0.58782,1.00182 0.67966,1.1542 0.93769,1.55567 1.47735,2.57869 1.58328,3.0014 0.07,0.27936 0.1948,0.50793 0.2773,0.50793 0.0825,0 0.20477,0.24934 0.2717,0.5541 0.0669,0.30476 0.19822,0.55411 0.29173,0.55411 0.0935,0 0.17003,0.0913 0.17003,0.20296 0,0.11163 0.11654,0.46487 0.25898,0.78498 0.14244,0.32011 0.47814,1.08071 0.746,1.69023 0.26786,0.60951 0.56689,1.25253 0.66453,1.42893 0.0976,0.1764 0.1775,0.43644 0.1775,0.57787 0,0.25673 0.38993,0.45179 1.72112,0.86097 1.49836,0.46057 3.26582,3.00247 3.26582,4.69679 0,0.55578 -0.62114,2.342 -0.96626,2.77872 -0.0803,0.10159 -0.32165,0.41876 -0.53637,0.70484 -0.21472,0.28607 -0.73329,0.74289 -1.15237,1.01514 -0.68395,0.44431 -0.93358,0.49507 -2.43776,0.49572 -1.31584,5.3e-4 -1.82901,-0.0786 -2.3892,-0.36868 -0.88933,-0.46049 -2.04197,-1.57706 -2.22153,-2.15201 -0.0745,-0.2386 -0.22817,-0.49311 -0.34146,-0.56559 -0.12726,-0.0814 -0.20598,-0.78729 -0.20598,-1.84701 0,-1.40956 0.0658,-1.81284 0.3694,-2.26289 0.54074,-0.80164 1.6643,-1.94582 1.91077,-1.94582 0.29244,0 0.26879,-0.7607 -0.0375,-1.20564 -0.13793,-0.20038 -0.35318,-0.6791 -0.47834,-1.06381 -0.12516,-0.38472 -0.4684,-1.17432 -0.76275,-1.75466 -0.29435,-0.58035 -0.53623,-1.15215 -0.53752,-1.27067 -0.001,-0.11852 -0.0647,-0.24319 -0.14086,-0.27705 -0.0762,-0.0339 -0.38788,-0.56026 -0.69263,-1.16978 -0.30476,-0.60951 -0.59736,-1.14976 -0.65022,-1.20056 -0.0529,-0.0508 -0.19919,-0.30014 -0.32519,-0.5541 -0.12599,-0.25397 -0.37364,-0.68298 -0.55034,-0.95336 -0.1767,-0.27039 -0.56518,-0.89375 -0.86329,-1.38527 -0.29812,-0.49151 -0.63058,-0.99161 -0.73881,-1.11134 -0.10823,-0.11972 -0.523,-0.68076 -0.92171,-1.24673 -0.3987,-0.56598 -0.79351,-1.02905 -0.87733,-1.02905 -0.0838,0 -0.1524,-0.12054 -0.1524,-0.26787 0,-0.14734 -0.10439,-0.33435 -0.23197,-0.41558 -0.12759,-0.0812 -0.47876,-0.48017 -0.78039,-0.88651 -0.63796,-0.85943 -5.2092,-5.45039 -6.28746,-6.31459 -0.40409,-0.32386 -0.98405,-0.77948 -1.2888,-1.01248 -0.30476,-0.233 -0.58181,-0.4875 -0.61567,-0.56554 -0.0339,-0.078 -0.17519,-0.14191 -0.31405,-0.14191 -0.13887,0 -0.31895,-0.10389 -0.40019,-0.23087 -0.17661,-0.27606 -1.12589,-0.94626 -1.57914,-1.11489 -0.17778,-0.0661 -0.32323,-0.20598 -0.32323,-0.31075 0,-0.10478 -0.11874,-0.1905 -0.26386,-0.1905 -0.14512,0 -0.37369,-0.10926 -0.50793,-0.24279 -0.32624,-0.32454 -2.84552,-1.78893 -3.0776,-1.78893 -0.10079,0 -0.21096,-0.0631 -0.24483,-0.14023 -0.0828,-0.18851 -3.14025,-1.71025 -3.43236,-1.70831 -0.12698,7.9e-4 -0.23088,-0.0816 -0.23088,-0.18317 0,-0.10159 -0.0877,-0.18471 -0.19484,-0.18471 -0.17627,0 -0.84065,-0.27228 -2.51125,-1.0292 -0.32011,-0.14504 -0.69413,-0.26422 -0.83115,-0.26484 -0.13703,-5.3e-4 -0.48871,-0.12608 -0.78151,-0.27878 -0.2928,-0.1527 -0.85567,-0.32934 -1.25083,-0.39253 -0.39515,-0.0632 -0.76308,-0.18708 -0.81762,-0.27533 -0.0545,-0.0882 -0.25758,-0.16044 -0.4512,-0.16044 -0.19363,0 -0.74791,-0.13439 -1.23174,-0.29866 -1.17904,-0.4003 -3.39797,-0.79756 -5.90667,-1.05749 -1.13497,-0.11759 -2.12543,-0.27615 -2.20102,-0.35233 -0.19926,-0.20084 -8.51706,-0.17056 -8.89787,0.0324 -0.1764,0.094 -1.235,0.25503 -2.35244,0.35782 -2.44703,0.22511 -5.433729,0.69904 -5.825201,0.92435 -0.156287,0.0899 -0.654981,0.22478 -1.10821,0.29962 -0.453229,0.0748 -0.907169,0.19895 -1.008756,0.27581 -0.101584,0.0769 -0.492873,0.19523 -0.869529,0.26307 -0.376655,0.0678 -0.916908,0.24439 -1.20056,0.39235 -0.283652,0.14795 -0.640403,0.27003 -0.792782,0.27128 -0.152378,0.001 -0.500022,0.11861 -0.772541,0.26078 -0.272518,0.14218 -0.750432,0.31451 -1.062032,0.38295 -0.311602,0.0684 -0.566547,0.19717 -0.566547,0.28609 0,0.0889 -0.290904,0.21623 -0.646456,0.28293 -0.35555,0.0667 -0.646454,0.18198 -0.646454,0.25619 0,0.0742 -0.345665,0.23847 -0.768146,0.36505 -0.422482,0.12658 -1.085755,0.43064 -1.473941,0.67569 -0.388189,0.24505 -0.784627,0.44555 -0.880975,0.44555 -0.09635,0 -0.287975,0.10389 -0.425842,0.23088 -0.326157,0.30041 -1.212061,0.81466 -1.853615,1.07598 -0.27936,0.11379 -0.507929,0.28187 -0.507929,0.37352 0,0.0917 -0.07943,0.16663 -0.176498,0.16663 -0.09708,0 -0.658106,0.33327 -1.246735,0.7406 -0.588632,0.40733 -1.227082,0.84368 -1.418781,0.96968 -0.9985,0.65629 -3.658571,2.79094 -4.566681,3.66467 -2.642984,2.54292 -3.087196,2.98808 -3.982146,3.99063 -0.525365,0.58853 -1.147435,1.3194 -1.382379,1.62416 -0.706004,0.91579 -0.778854,1.00383 -1.40262,1.69515 -0.330152,0.36591 -0.600279,0.72406 -0.600279,0.7959 0,0.1147 -0.217966,0.40878 -0.920083,1.24136 -0.103471,0.1227 -0.188127,0.26398 -0.188127,0.31397 0,0.05 -0.240654,0.4483 -0.534789,0.88513 -1.07274,1.59316 -3.343941,5.9477 -3.343941,6.41126 0,0.11059 -0.08312,0.20107 -0.184701,0.20107 -0.101587,0 -0.184703,0.0913 -0.184703,0.20297 0,0.11163 -0.117861,0.46487 -0.261913,0.78498 -0.642112,1.42689 -1.031476,2.3995 -1.037265,2.59104 -0.0034,0.11407 -0.166857,0.53986 -0.363135,0.9462 -0.196279,0.40634 -0.359688,0.88539 -0.363136,1.06454 -0.0034,0.17915 -0.08873,0.47006 -0.189521,0.64646 -0.191108,0.33447 -0.609123,1.93477 -1.000447,3.83005 -0.12585,0.60951 -0.27893,1.23288 -0.340181,1.38526 -0.14551,0.362 -0.486616,2.79899 -0.685093,4.89459 -0.203023,2.14357 -0.202351,7.28696 0.0013,9.41977 0.302093,3.16488 0.554326,4.98835 0.734184,5.30766 0.09936,0.1764 0.18039,0.50886 0.180068,0.73881 -2.65e-4,0.22995 0.174836,1.04145 0.389241,1.80335 0.214406,0.76189 0.554363,1.96706 0.75546,2.67817 0.201099,0.7111 0.483076,1.55482 0.626618,1.87493 0.143531,0.32011 0.260974,0.71 0.260974,0.86643 0,0.15643 0.07672,0.33183 0.170493,0.38978 0.09377,0.058 0.229523,0.37454 0.301677,0.70353 0.07215,0.32899 0.286335,0.88784 0.475962,1.24188 0.18963,0.35405 0.344779,0.74885 0.344779,0.87733 0,0.12849 0.08312,0.23362 0.184703,0.23362 0.101584,0 0.1847,0.117 0.1847,0.26 0,0.27959 0.92288,2.17174 1.135293,2.32767 0.07058,0.0518 0.185488,0.32193 0.255346,0.60028 0.06986,0.27834 0.201123,0.50608 0.291698,0.50608 0.09057,0 0.164677,0.0844 0.164677,0.1875 0,0.10312 0.253084,0.62259 0.562409,1.15438 0.937977,1.61255 1.050263,1.78465 1.715484,2.6292 0.779116,0.98915 1.923087,2.76041 2.048425,3.17168 0.09078,0.29787 -0.02082,0.54753 -0.43349,0.96968 -0.646108,0.66096 -1.24491,0.72347 -1.91103,0.1995 z"
       id="path375-8" /><path
       style="fill:#ffffff;fill-rule:evenodd;stroke-width:0.184701"
       d="m 106.95381,288.88025 c -2.65383,-0.18596 -5.04807,-0.48791 -6.3722,-0.80363 -0.609515,-0.14533 -1.523788,-0.32111 -2.031717,-0.39063 -0.507931,-0.0695 -1.006623,-0.18757 -1.10821,-0.26234 -0.101586,-0.0748 -0.434049,-0.19046 -0.738806,-0.2571 -0.630656,-0.13791 -4.61155,-1.36937 -5.171641,-1.59981 -0.203171,-0.0836 -0.660308,-0.27709 -1.015857,-0.43 -0.355553,-0.15291 -1.145151,-0.48386 -1.754667,-0.73546 -1.556755,-0.64259 -5.659749,-2.75721 -6.661139,-3.43304 -0.460785,-0.31097 -0.878546,-0.56541 -0.92836,-0.56541 -0.108116,0 -1.167227,-0.73978 -1.503156,-1.04994 -0.469286,-0.43328 -0.95333,-0.43906 -1.836303,-0.0219 -1.323988,0.62549 -2.996914,0.58869 -4.351084,-0.0957 -1.150641,-0.58153 -2.281338,-1.69118 -2.463723,-2.41785 -0.06598,-0.26291 -0.19408,-0.47802 -0.284652,-0.47802 -0.09057,0 -0.164679,-0.74804 -0.164679,-1.66232 0,-0.91427 0.07411,-1.66231 0.164679,-1.66231 0.09057,0 0.215085,-0.20084 0.276696,-0.44631 0.119764,-0.47718 1.346581,-2.13951 1.65282,-2.13951 0.101084,0 0.303845,0.12236 0.337709,0.0462 0.09512,-0.21403 2.049987,-0.96968 2.508552,-0.96968 0.8749,0 2.844392,0.80868 3.60934,1.48202 1.193144,1.05025 1.655278,2.13132 1.601689,3.74684 -0.02424,0.73043 -0.03254,1.43018 -0.01847,1.555 0.02813,0.24965 2.434268,1.89711 2.770759,1.89711 0.115523,0 0.210037,0.0634 0.210037,0.14091 0,0.13988 0.177284,0.25354 1.214864,0.77884 0.296891,0.15031 0.581358,0.32126 0.632153,0.37989 0.05079,0.0586 0.362476,0.21586 0.692629,0.3494 0.330155,0.13354 0.600281,0.30922 0.600281,0.39041 0,0.0812 0.249346,0.20239 0.554104,0.26932 0.304757,0.0669 0.554103,0.19822 0.554103,0.29173 0,0.0935 0.103897,0.17263 0.230878,0.1758 0.126982,0.003 0.646457,0.21021 1.154385,0.46007 0.507929,0.24986 1.027401,0.45505 1.154383,0.45598 0.126984,7.9e-4 0.230878,0.0848 0.230878,0.18639 0,0.10158 0.129233,0.1847 0.287184,0.1847 0.260495,0 1.608918,0.5288 2.298636,0.90145 0.152379,0.0823 0.73419,0.25652 1.292911,0.38711 0.558723,0.13058 1.098973,0.30188 1.20056,0.38065 0.101586,0.0788 0.579501,0.20201 1.062035,0.27384 0.482531,0.0718 0.877331,0.19767 0.877331,0.27964 0,0.082 0.541407,0.207 1.203127,0.27787 0.66172,0.0709 1.244401,0.19563 1.294851,0.27726 0.0504,0.0816 0.65189,0.20205 1.33652,0.26759 0.68464,0.0656 1.86816,0.2556 2.63005,0.42234 2.00479,0.43874 10.89603,0.43526 13.02146,-0.005 0.81268,-0.16838 1.9763,-0.36169 2.58582,-0.42958 0.60951,-0.0679 1.19132,-0.18604 1.29291,-0.26256 0.10159,-0.0765 0.68339,-0.19894 1.29291,-0.27206 0.60951,-0.0731 1.19133,-0.19845 1.29291,-0.27852 0.10159,-0.0801 0.55872,-0.23431 1.01586,-0.34278 1.50523,-0.35713 2.85375,-0.76708 3.44489,-1.04723 0.32011,-0.1517 0.71491,-0.27583 0.87733,-0.27583 0.16242,0 0.29532,-0.0831 0.29532,-0.1847 0,-0.10159 0.13289,-0.1847 0.29531,-0.1847 0.29479,0 0.52989,-0.0935 2.50994,-0.99779 0.57783,-0.2639 1.13886,-0.47982 1.24674,-0.47982 0.10788,0 0.19614,-0.0765 0.19614,-0.17003 0,-0.0935 0.24935,-0.22479 0.5541,-0.29173 0.30476,-0.0669 0.55411,-0.19008 0.55411,-0.27365 0,-0.0836 0.25414,-0.24056 0.56476,-0.34884 0.31062,-0.10828 0.93816,-0.44888 1.39452,-0.75687 0.45637,-0.308 0.90871,-0.56 1.0052,-0.56 0.0965,0 0.17545,-0.0649 0.17545,-0.14421 0,-0.0793 0.22856,-0.2416 0.50792,-0.36064 0.56619,-0.24126 2.37748,-1.5176 3.92491,-2.76574 0.55872,-0.45067 1.34832,-1.08354 1.75466,-1.4064 1.62005,-1.2872 6.18237,-6.06535 7.61759,-7.97796 0.83734,-1.11585 1.58596,-2.11194 1.66359,-2.21353 0.0776,-0.10159 0.51422,-0.76651 0.97018,-1.47761 0.45597,-0.7111 0.89175,-1.32062 0.96841,-1.35448 0.0767,-0.0339 0.13938,-0.14455 0.13938,-0.24597 0,-0.10143 0.29009,-0.67937 0.64464,-1.28433 0.35455,-0.60495 0.69603,-1.30465 0.75883,-1.55486 0.0628,-0.25022 0.18829,-0.45495 0.27886,-0.45495 0.0906,0 0.16468,-0.0948 0.16468,-0.21065 0,-0.19486 0.46204,-1.27344 1.01747,-2.37517 0.12803,-0.25397 0.29055,-0.73188 0.36114,-1.06204 0.0706,-0.33015 0.19756,-0.60027 0.28215,-0.60027 0.0846,0 0.20995,-0.33247 0.27861,-0.73881 0.0686,-0.40635 0.19119,-0.73881 0.27231,-0.73881 0.0811,0 0.2033,-0.37208 0.27149,-0.82685 0.0682,-0.45477 0.19044,-0.86791 0.27164,-0.9181 0.0812,-0.0502 0.24862,-0.61315 0.37204,-1.25104 0.12342,-0.63788 0.29132,-1.28778 0.37312,-1.44421 0.0818,-0.15644 0.20514,-0.73825 0.27409,-1.29291 0.069,-0.55467 0.19969,-1.17472 0.29055,-1.3779 0.0909,-0.20317 0.25493,-0.99276 0.36462,-1.75466 0.1097,-0.76189 0.28403,-1.92551 0.38742,-2.58582 0.10338,-0.66031 0.20903,-2.35322 0.23478,-3.76203 0.0534,-2.91911 0.12934,-3.07192 1.52758,-3.07192 1.3142,0 1.40191,0.20793 1.31616,3.12043 -0.0815,2.7698 -0.61406,8.02759 -0.87185,8.60811 -0.0902,0.20317 -0.21822,0.77642 -0.28444,1.27388 -0.0662,0.49746 -0.19323,1.03772 -0.28225,1.20056 -0.089,0.16285 -0.24221,0.6701 -0.34043,1.12724 -0.29156,1.35698 -0.75511,3.02723 -0.92437,3.33069 -0.0868,0.15571 -0.21788,0.55611 -0.29116,0.88977 -0.0733,0.33366 -0.24957,0.82963 -0.39175,1.10215 -0.14218,0.27252 -0.25902,0.63603 -0.25965,0.80781 -5.3e-4,0.17178 -0.0843,0.36373 -0.18594,0.42654 -0.10164,0.0628 -0.27774,0.4833 -0.39133,0.93441 -0.11358,0.45111 -0.27317,0.8202 -0.35462,0.8202 -0.0815,0 -0.20671,0.27012 -0.27833,0.60028 -0.0716,0.33015 -0.19243,0.64183 -0.26844,0.69263 -0.076,0.0508 -0.41882,0.66394 -0.76178,1.36256 -0.90303,1.83947 -0.97357,1.96206 -1.12912,1.96206 -0.0775,0 -0.1409,0.10501 -0.1409,0.23335 0,0.12833 -0.29091,0.66531 -0.64646,1.19327 -0.35555,0.52796 -0.64645,1.00975 -0.64645,1.07065 0,0.13157 -1.16222,1.71746 -1.56519,2.13577 -0.15501,0.1609 -0.28183,0.38533 -0.28183,0.49875 0,0.11341 -0.10414,0.27267 -0.23141,0.3539 -0.12728,0.0812 -0.47121,0.50119 -0.76429,0.93322 -0.29309,0.43203 -0.70843,0.97613 -0.92297,1.20912 -0.21456,0.23297 -0.74666,0.85083 -1.18246,1.373 -1.47019,1.76157 -4.96588,5.09631 -7.11873,6.79096 -0.38716,0.30476 -0.93855,0.74112 -1.22532,0.96968 -0.28676,0.22857 -0.61329,0.41558 -0.7256,0.41558 -0.11232,0 -0.20422,0.0641 -0.20422,0.14239 0,0.0783 -0.37402,0.34669 -0.83115,0.59642 -0.45714,0.24972 -0.83116,0.5082 -0.83116,0.5744 0,0.0662 -0.45714,0.35165 -1.01586,0.63434 -0.55872,0.28268 -1.01586,0.5738 -1.01586,0.64693 0,0.0731 -0.14545,0.1862 -0.32323,0.25128 -0.17777,0.0651 -0.65569,0.31796 -1.06203,0.56197 -1.3262,0.79637 -4.77227,2.42984 -5.49487,2.60461 -0.27936,0.0676 -0.50793,0.19696 -0.50793,0.28753 0,0.0906 -0.13289,0.16468 -0.29531,0.16468 -0.16242,0 -0.55722,0.11752 -0.87733,0.26115 -0.99677,0.44722 -5.09422,1.77057 -5.4822,1.77057 -0.20285,0 -0.51315,0.0764 -0.68955,0.16966 -0.1764,0.0933 -1.06876,0.31363 -1.98303,0.4896 -5.32903,1.02569 -10.05317,1.33456 -15.05317,0.98421 z"
       id="path377-3" /><text
       xml:space="preserve"
       style="font-size:9.87778px;font-family:'Arial Rounded MT Bold';-inkscape-font-specification:'Arial Rounded MT Bold, ';fill:#ffffff;fill-opacity:1;fill-rule:evenodd;stroke-width:0.264583"
       x="78.623405"
       y="262.77457"
       id="text2769"><tspan
         id="tspan2767"
         style="font-style:normal;font-variant:normal;font-weight:bold;font-stretch:normal;font-size:9.87778px;font-family:Arial;-inkscape-font-specification:'Arial Bold';fill:#ffffff;stroke-width:0.264583"
         x="78.623405"
         y="262.77457">SAN JOAQUÍN</tspan></text></g></svg>
