<?xml version="1.0" encoding="UTF-8"?>
<!DOCTYPE svg PUBLIC "-//W3C//DTD SVG 1.1//EN" "http://www.w3.org/Graphics/SVG/1.1/DTD/svg11.dtd">
<svg xmlns="http://www.w3.org/2000/svg" version="1.1" width="750px" height="750px" style="shape-rendering:geometricPrecision; text-rendering:geometricPrecision; image-rendering:optimizeQuality; fill-rule:evenodd; clip-rule:evenodd" xmlns:xlink="http://www.w3.org/1999/xlink">
<g><path style="opacity:0.586" fill="#607585" d="M 415.5,317.5 C 418.323,317.025 420.323,318.025 421.5,320.5C 421.182,321.647 420.516,322.481 419.5,323C 423.518,323.863 425.518,326.363 425.5,330.5C 429.211,332.008 433.044,333.342 437,334.5C 438.049,333.483 439.216,333.316 440.5,334C 443.393,336.429 446.227,338.929 449,341.5C 449.777,344.429 449.61,347.263 448.5,350C 451.163,353.484 451.829,357.317 450.5,361.5C 460.442,380.954 457.442,398.121 441.5,413C 424.33,423.551 407.663,422.884 391.5,411C 377.88,395.801 375.88,379.134 385.5,361C 384.755,358.429 384.421,355.929 384.5,353.5C 386.642,351.43 387.976,348.93 388.5,346C 387.552,345.517 386.552,345.351 385.5,345.5C 385.5,343.5 385.5,341.5 385.5,339.5C 390.05,340.155 393.05,338.321 394.5,334C 397.231,333.929 399.731,334.096 402,334.5C 403.006,331.11 405.006,330.11 408,331.5C 409.932,328.116 412.432,325.282 415.5,323C 414.248,321.172 414.248,319.339 415.5,317.5 Z M 434.5,342.5 C 433.227,341.923 433.227,341.257 434.5,340.5C 435.463,340.97 435.463,341.637 434.5,342.5 Z M 402.5,342.5 C 403.043,342.56 403.376,342.893 403.5,343.5C 402.277,344.614 400.944,344.781 399.5,344C 400.737,343.768 401.737,343.268 402.5,342.5 Z M 434.5,342.5 C 436.028,342.517 436.528,343.184 436,344.5C 435.283,343.956 434.783,343.289 434.5,342.5 Z M 437.5,342.5 C 440.001,342.511 440.168,343.178 438,344.5C 437.536,343.906 437.369,343.239 437.5,342.5 Z M 442.5,342.5 C 443.497,342.47 444.164,342.97 444.5,344C 444.28,345.679 443.78,347.179 443,348.5C 442.505,346.527 442.338,344.527 442.5,342.5 Z M 427.5,347.5 C 425.376,348.031 423.876,349.365 423,351.5C 423.266,348.099 421.766,346.433 418.5,346.5C 418.5,348.5 418.5,350.5 418.5,352.5C 421.28,352.945 423.947,352.945 426.5,352.5C 427.298,352.957 427.631,353.624 427.5,354.5C 421.161,353.232 414.828,353.232 408.5,354.5C 406.956,348.303 407.789,347.969 411,353.5C 411.98,351.941 412.813,350.274 413.5,348.5C 414.731,349.651 414.731,350.817 413.5,352C 414.793,352.49 416.127,352.657 417.5,352.5C 417.5,350.5 417.5,348.5 417.5,346.5C 414.518,346.963 411.518,347.296 408.5,347.5C 414.823,344.898 421.157,344.898 427.5,347.5 Z M 427.5,347.5 C 428.791,347.263 429.791,347.596 430.5,348.5C 429.069,348.881 428.236,349.881 428,351.5C 427.51,350.207 427.343,348.873 427.5,347.5 Z M 402.5,349.5 C 403.209,348.596 404.209,348.263 405.5,348.5C 405.389,349.117 405.056,349.617 404.5,350C 405.283,352.118 406.616,353.618 408.5,354.5C 406.819,356.008 404.819,357.008 402.5,357.5C 402.586,356.504 402.252,355.671 401.5,355C 402.951,355.263 404.284,355.096 405.5,354.5C 404.725,352.604 403.725,350.937 402.5,349.5 Z M 430.5,348.5 C 432.153,348.66 433.486,349.326 434.5,350.5C 431.335,351.495 430.335,353.495 431.5,356.5C 429.847,356.34 428.514,355.674 427.5,354.5C 429.384,353.618 430.717,352.118 431.5,350C 430.944,349.617 430.611,349.117 430.5,348.5 Z M 402.5,349.5 C 401.402,350.397 401.402,351.23 402.5,352C 398.554,351.526 398.554,350.693 402.5,349.5 Z M 399.5,355.5 C 398.5,354.833 397.5,354.167 396.5,353.5C 396.783,352.711 397.283,352.044 398,351.5C 398.791,352.745 399.291,354.078 399.5,355.5 Z M 436.5,351.5 C 438.404,351.738 439.738,352.738 440.5,354.5C 436.941,357.506 435.608,356.506 436.5,351.5 Z M 396.5,353.5 C 396.167,354.167 395.833,354.833 395.5,355.5C 394.833,355.5 394.167,355.5 393.5,355.5C 393.973,354.094 394.973,353.427 396.5,353.5 Z M 440.5,354.5 C 444.146,356.666 443.813,358.666 439.5,360.5C 440.15,358.565 440.483,356.565 440.5,354.5 Z M 393.5,355.5 C 394.167,358.167 395.833,359.833 398.5,360.5C 397.5,362.167 396.167,363.5 394.5,364.5C 393.105,362.621 391.105,361.621 388.5,361.5C 389.443,358.891 391.11,356.891 393.5,355.5 Z M 399.5,355.5 C 400.222,356.551 401.222,357.218 402.5,357.5C 401.71,358.401 400.71,359.068 399.5,359.5C 399.5,358.167 399.5,356.833 399.5,355.5 Z M 413.5,355.5 C 414.5,355.5 415.5,355.5 416.5,355.5C 416.5,357.5 416.5,359.5 416.5,361.5C 415.167,361.5 413.833,361.5 412.5,361.5C 412.325,359.379 412.659,357.379 413.5,355.5 Z M 418.5,355.5 C 422.54,355.591 426.207,356.758 429.5,359C 427.007,360.325 425.84,362.491 426,365.5C 423.126,365.959 420.792,367.293 419,369.5C 418.501,364.845 418.334,360.179 418.5,355.5 Z M 431.5,356.5 C 433.179,356.285 434.179,356.952 434.5,358.5C 433.29,358.068 432.29,357.401 431.5,356.5 Z M 397.5,365.5 C 399.888,362.462 402.888,360.129 406.5,358.5C 407.386,359.325 407.719,360.325 407.5,361.5C 406.167,361.5 404.833,361.5 403.5,361.5C 403.5,362.833 403.5,364.167 403.5,365.5C 401.5,365.5 399.5,365.5 397.5,365.5 Z M 409.5,358.5 C 410.451,359.919 410.784,361.585 410.5,363.5C 417.167,364.167 417.167,364.833 410.5,365.5C 410.167,384.167 409.833,384.167 409.5,365.5C 404.167,364.833 404.167,364.167 409.5,363.5C 409.5,361.833 409.5,360.167 409.5,358.5 Z M 434.5,358.5 C 436.179,358.285 437.179,358.952 437.5,360.5C 436.29,360.068 435.29,359.401 434.5,358.5 Z M 445.5,359.5 C 448.164,361.484 449.831,364.151 450.5,367.5C 447.179,365.827 445.179,366.827 444.5,370.5C 442.917,368.337 441.584,366.004 440.5,363.5C 442.042,364.301 443.708,364.634 445.5,364.5C 445.5,362.833 445.5,361.167 445.5,359.5 Z M 437.5,360.5 C 438.167,360.5 438.833,360.5 439.5,360.5C 439.5,361.167 439.5,361.833 439.5,362.5C 438.5,362.167 437.833,361.5 437.5,360.5 Z M 388.5,361.5 C 388.751,363.17 389.418,364.67 390.5,366C 388.773,365.474 387.106,365.641 385.5,366.5C 385.75,364.326 386.75,362.659 388.5,361.5 Z M 438.5,366.5 C 434.677,366.833 433.177,365.166 434,361.5C 436.391,362.39 437.891,364.057 438.5,366.5 Z M 394.5,364.5 C 394.573,366.027 393.906,367.027 392.5,367.5C 392.285,365.821 392.952,364.821 394.5,364.5 Z M 385.5,366.5 C 386.167,367.167 386.833,367.833 387.5,368.5C 386.5,368.5 385.5,368.5 384.5,368.5C 384.328,367.508 384.662,366.842 385.5,366.5 Z M 412.5,367.5 C 413.833,367.5 415.167,367.5 416.5,367.5C 416.5,372.167 416.5,376.833 416.5,381.5C 415.167,381.5 413.833,381.5 412.5,381.5C 412.5,376.833 412.5,372.167 412.5,367.5 Z M 384.5,368.5 C 383.678,374.209 385.511,375.543 390,372.5C 389.171,379.152 389.338,385.819 390.5,392.5C 388.621,392.607 388.288,392.107 389.5,391C 388.207,390.51 386.873,390.343 385.5,390.5C 384.449,391.222 383.782,392.222 383.5,393.5C 382.016,389.946 381.349,386.112 381.5,382C 381.111,377.07 382.111,372.57 384.5,368.5 Z M 387.5,368.5 C 388.239,368.369 388.906,368.536 389.5,369C 388.929,370.205 388.262,371.372 387.5,372.5C 386.692,372.192 386.025,371.692 385.5,371C 386.756,370.583 387.423,369.75 387.5,368.5 Z M 451.5,369.5 C 454.841,374.49 453.507,377.49 447.5,378.5C 447.351,379.552 447.517,380.552 448,381.5C 449.458,380.253 450.958,380.253 452.5,381.5C 453.281,380.271 453.781,378.938 454,377.5C 454.808,381.027 454.641,384.36 453.5,387.5C 453.938,383.092 451.938,381.425 447.5,382.5C 447.259,384.886 447.925,386.886 449.5,388.5C 448.5,388.5 447.5,388.5 446.5,388.5C 446.693,391.811 445.693,394.478 443.5,396.5C 445.934,390.071 446.934,383.404 446.5,376.5C 448.831,377.189 450.831,376.356 452.5,374C 449.927,373.218 447.927,371.718 446.5,369.5C 447.365,368.417 448.365,368.251 449.5,369C 448.289,369.893 448.289,370.726 449.5,371.5C 450.522,371.145 451.189,370.478 451.5,369.5 Z M 393.5,370.5 C 394.73,373.404 396.73,375.737 399.5,377.5C 398.754,378.736 398.421,380.07 398.5,381.5C 396.167,381.5 393.833,381.5 391.5,381.5C 391.691,377.738 392.358,374.071 393.5,370.5 Z M 398.5,371.5 C 400.628,370.371 402.961,370.204 405.5,371C 403.326,374.121 400.993,374.288 398.5,371.5 Z M 441.5,371.5 C 443.41,374.452 444.41,377.786 444.5,381.5C 442.801,381.66 441.134,381.494 439.5,381C 439.833,380.667 440.167,380.333 440.5,380C 439.74,378.559 439.074,377.059 438.5,375.5C 440.288,374.717 441.288,373.384 441.5,371.5 Z M 406.5,372.5 C 407.803,375.355 407.803,378.355 406.5,381.5C 404.585,378.676 404.585,375.676 406.5,372.5 Z M 418.5,372.5 C 419.534,373.687 420.867,374.52 422.5,375C 419.404,383.226 418.071,382.392 418.5,372.5 Z M 384.5,378.5 C 385.386,377.224 386.386,377.224 387.5,378.5C 386.767,379.087 385.767,379.087 384.5,378.5 Z M 391.5,383.5 C 394.598,383.413 394.932,383.913 392.5,385C 393.696,385.654 393.696,386.154 392.5,386.5C 391.614,385.675 391.281,384.675 391.5,383.5 Z M 404.5,384.5 C 408.298,383.517 412.298,383.183 416.5,383.5C 416.785,385.288 416.452,386.955 415.5,388.5C 412.388,386.816 409.054,386.15 405.5,386.5C 407.031,385.075 406.698,384.409 404.5,384.5 Z M 418.5,383.5 C 421.572,383.183 424.572,383.516 427.5,384.5C 425.234,385.314 422.9,385.814 420.5,386C 420.537,387.949 420.037,389.782 419,391.5C 418.503,388.854 418.336,386.187 418.5,383.5 Z M 432.5,383.5 C 436.5,383.5 440.5,383.5 444.5,383.5C 444.186,386.947 443.352,390.28 442,393.5C 441.365,392.034 440.531,390.7 439.5,389.5C 440.246,388.264 440.579,386.93 440.5,385.5C 437.302,386.036 434.635,385.369 432.5,383.5 Z M 383.5,385.5 C 384.849,384.203 386.182,384.37 387.5,386C 386.072,386.579 384.738,386.412 383.5,385.5 Z M 429.5,384.5 C 430.267,385.172 430.934,386.005 431.5,387C 430.7,391.08 430.2,395.247 430,399.5C 429.8,395.247 429.3,391.08 428.5,387C 429.252,386.329 429.586,385.496 429.5,384.5 Z M 448.5,385.5 C 449.251,384.427 450.251,384.26 451.5,385C 450.648,386.728 449.648,386.895 448.5,385.5 Z M 453.5,387.5 C 453.768,389.099 453.434,390.432 452.5,391.5C 451.9,390.1 450.9,389.1 449.5,388.5C 450.833,388.167 452.167,387.833 453.5,387.5 Z M 409.5,388.5 C 411.121,388.787 412.121,389.787 412.5,391.5C 410.833,392.833 409.167,392.833 407.5,391.5C 408.612,390.735 409.279,389.735 409.5,388.5 Z M 423.5,390.5 C 424.568,389.566 425.901,389.232 427.5,389.5C 427.649,390.552 427.483,391.552 427,392.5C 425.887,391.695 424.721,391.028 423.5,390.5 Z M 432.5,389.5 C 433.873,389.343 435.207,389.51 436.5,390C 435.382,391.074 434.382,392.24 433.5,393.5C 432.571,392.311 432.238,390.978 432.5,389.5 Z M 403.5,390.5 C 404.043,390.56 404.376,390.893 404.5,391.5C 401.5,393.833 401.833,395.5 405.5,396.5C 406.614,399.797 407.114,403.131 407,406.5C 404.343,405.427 402.177,403.76 400.5,401.5C 402.736,399.453 403.069,397.12 401.5,394.5C 401.752,392.927 402.418,391.594 403.5,390.5 Z M 452.5,391.5 C 452.649,392.552 452.483,393.552 452,394.5C 450.601,393.773 449.101,393.273 447.5,393C 448.289,389.903 449.456,389.736 451,392.5C 451.383,391.944 451.883,391.611 452.5,391.5 Z M 390.5,392.5 C 391.674,393.514 392.34,394.847 392.5,396.5C 390.833,396.5 389.167,396.5 387.5,396.5C 388.209,395.596 389.209,395.263 390.5,395.5C 390.5,394.5 390.5,393.5 390.5,392.5 Z M 383.5,393.5 C 384.167,393.5 384.833,393.5 385.5,393.5C 384.833,396.167 384.167,396.167 383.5,393.5 Z M 394.5,393.5 C 396.926,394.353 397.76,396.019 397,398.5C 395.628,397.09 394.795,395.423 394.5,393.5 Z M 425.5,394.5 C 430.137,398.049 429.47,399.216 423.5,398C 424.823,397.184 425.489,396.017 425.5,394.5 Z M 418.5,395.5 C 420.759,396.344 421.759,398.011 421.5,400.5C 423.861,400.674 426.194,401.007 428.5,401.5C 429.052,403.331 429.052,404.997 428.5,406.5C 425.34,408.027 422.007,408.693 418.5,408.5C 418.5,404.167 418.5,399.833 418.5,395.5 Z M 432.5,395.5 C 435.063,396.998 435.063,398.665 432.5,400.5C 432.193,399.113 432.193,397.446 432.5,395.5 Z M 446.5,396.5 C 448.376,395.742 450.043,395.742 451.5,396.5C 450.917,398.002 450.084,399.335 449,400.5C 448.878,398.563 448.045,397.23 446.5,396.5 Z M 387.5,396.5 C 387.443,397.609 387.11,398.609 386.5,399.5C 383.662,397.694 383.995,396.694 387.5,396.5 Z M 392.5,396.5 C 393.89,397.899 394.89,399.566 395.5,401.5C 394.153,402.028 392.819,402.195 391.5,402C 392.406,400.301 392.739,398.467 392.5,396.5 Z M 414.5,396.5 C 416.423,400.029 417.089,404.029 416.5,408.5C 414.712,408.785 413.045,408.452 411.5,407.5C 413.042,403.64 414.042,399.973 414.5,396.5 Z M 436.5,400.5 C 436.533,397.903 437.533,396.903 439.5,397.5C 438.812,398.855 437.812,399.855 436.5,400.5 Z M 388.5,398.5 C 391.797,398.329 392.131,398.995 389.5,400.5C 388.702,400.043 388.369,399.376 388.5,398.5 Z M 447.5,402.5 C 447.068,403.71 446.401,404.71 445.5,405.5C 445.249,403.83 444.582,402.33 443.5,401C 444.313,399.115 445.647,398.449 447.5,399C 444.93,400.349 444.93,401.516 447.5,402.5 Z M 441.5,399.5 C 441.5,400.833 440.833,401.5 439.5,401.5C 439.833,400.5 440.5,399.833 441.5,399.5 Z M 387.5,401.5 C 389.532,402.048 390.532,403.381 390.5,405.5C 388.738,404.738 387.738,403.404 387.5,401.5 Z M 439.5,401.5 C 439.5,402.5 439.5,403.5 439.5,404.5C 441.565,404.517 443.565,404.85 445.5,405.5C 443.761,408.243 441.427,410.243 438.5,411.5C 438.672,410.508 438.338,409.842 437.5,409.5C 437.5,407.5 436.5,406.5 434.5,406.5C 435.833,404.5 437.5,402.833 439.5,401.5 Z M 396.5,402.5 C 398.389,403.604 400.055,404.937 401.5,406.5C 399.616,407.382 398.283,408.882 397.5,411C 398.056,411.383 398.389,411.883 398.5,412.5C 395.573,411.243 393.239,409.243 391.5,406.5C 393.749,405.92 395.415,404.587 396.5,402.5 Z M 401.5,406.5 C 409.062,410.077 417.062,411.41 425.5,410.5C 425.45,413.198 426.45,415.364 428.5,417C 420.985,419.105 413.652,418.938 406.5,416.5C 410.054,413.566 409.887,411.232 406,409.5C 405.55,411.519 404.717,413.352 403.5,415C 401.86,415.348 400.527,414.848 399.5,413.5C 405.109,412.611 405.776,410.277 401.5,406.5 Z M 432.5,407.5 C 433.167,408.833 433.833,410.167 434.5,411.5C 432.5,410.833 430.5,410.167 428.5,409.5C 429.514,408.326 430.847,407.66 432.5,407.5 Z M 400.5,409.5 C 403.001,409.511 403.168,410.178 401,411.5C 400.536,410.906 400.369,410.239 400.5,409.5 Z M 425.5,410.5 C 426.209,409.596 427.209,409.263 428.5,409.5C 429.588,411.583 430.588,413.749 431.5,416C 431.167,416.167 430.833,416.333 430.5,416.5C 428.828,414.328 427.161,412.328 425.5,410.5 Z M 434.5,411.5 C 435.391,412.11 436.391,412.443 437.5,412.5C 435.351,415.334 434.351,415.001 434.5,411.5 Z"/></g>
<g><path style="opacity:0.989" fill="#0e273b" d="M 475.5,318.5 C 476.833,337.822 477.5,357.488 477.5,377.5C 477.167,397.167 476.833,416.833 476.5,436.5C 475.5,397.172 475.167,357.839 475.5,318.5 Z"/></g>
<g><path style="opacity:0.76" fill="#0e273b" d="M 370.5,325.5 C 381.769,324.734 385.936,329.734 383,340.5C 376.549,347.31 370.549,346.977 365,339.5C 363.268,333.314 365.101,328.647 370.5,325.5 Z M 369.5,331.5 C 370.634,333.966 370.801,336.633 370,339.5C 368.304,336.881 368.137,334.214 369.5,331.5 Z M 377.5,331.5 C 381.186,333.896 381.353,336.562 378,339.5C 376.585,336.998 376.419,334.332 377.5,331.5 Z M 372.5,332.5 C 373.675,332.281 374.675,332.614 375.5,333.5C 373.948,334.798 372.948,334.465 372.5,332.5 Z M 372.5,336.5 C 375.084,337.048 376.084,338.715 375.5,341.5C 374.5,341.5 373.5,341.5 372.5,341.5C 372.5,339.833 372.5,338.167 372.5,336.5 Z"/></g>
<g><path style="opacity:0.817" fill="#7a868b" d="M 496.5,327.5 C 499.5,327.5 502.5,327.5 505.5,327.5C 505.5,328.833 505.5,330.167 505.5,331.5C 503.5,331.5 501.5,331.5 499.5,331.5C 499.5,333.5 499.5,335.5 499.5,337.5C 501.5,337.5 503.5,337.5 505.5,337.5C 505.5,338.5 505.5,339.5 505.5,340.5C 503.5,340.5 501.5,340.5 499.5,340.5C 499.5,343.167 499.5,345.833 499.5,348.5C 501.833,348.5 504.167,348.5 506.5,348.5C 506.5,349.5 506.5,350.5 506.5,351.5C 503.167,351.5 499.833,351.5 496.5,351.5C 496.5,343.5 496.5,335.5 496.5,327.5 Z"/></g>
<g><path style="opacity:0.727" fill="#7a868b" d="M 512.5,327.5 C 516.241,326.599 518.241,327.932 518.5,331.5C 516.5,331.5 514.5,331.5 512.5,331.5C 512.215,333.288 512.548,334.955 513.5,336.5C 519.968,340.339 520.968,345.173 516.5,351C 513.131,353.476 510.464,352.976 508.5,349.5C 508.667,348.833 508.833,348.167 509,347.5C 510.726,348.576 512.559,348.743 514.5,348C 515.059,347.275 515.392,346.442 515.5,345.5C 513.934,342.425 511.767,339.758 509,337.5C 507.581,333.082 508.748,329.749 512.5,327.5 Z"/></g>
<g><path style="opacity:0.712" fill="#7a868b" d="M 527.5,327.5 C 529.5,327.5 531.5,327.5 533.5,327.5C 533.5,328.833 533.5,330.167 533.5,331.5C 527.595,331.087 524.928,333.92 525.5,340C 524.981,345.979 527.648,348.812 533.5,348.5C 533.542,350.849 532.375,352.182 530,352.5C 525.761,351.926 523.094,349.592 522,345.5C 520.015,338.128 521.848,332.128 527.5,327.5 Z"/></g>
<g><path style="opacity:0.867" fill="#7a868b" d="M 536.5,327.5 C 537.5,327.5 538.5,327.5 539.5,327.5C 539.334,333.509 539.501,339.509 540,345.5C 541.667,349.5 543.333,349.5 545,345.5C 545.499,339.509 545.666,333.509 545.5,327.5C 546.5,327.5 547.5,327.5 548.5,327.5C 548.666,334.508 548.5,341.508 548,348.5C 544.822,353.371 541.155,353.704 537,349.5C 536.5,342.174 536.334,334.841 536.5,327.5 Z"/></g>
<g><path style="opacity:0.698" fill="#7a868b" d="M 552.5,327.5 C 555.833,327.5 559.167,327.5 562.5,327.5C 562.5,328.833 562.5,330.167 562.5,331.5C 560.5,331.5 558.5,331.5 556.5,331.5C 556.5,333.5 556.5,335.5 556.5,337.5C 558.5,337.5 560.5,337.5 562.5,337.5C 562.5,338.5 562.5,339.5 562.5,340.5C 560.5,340.5 558.5,340.5 556.5,340.5C 556.5,343.167 556.5,345.833 556.5,348.5C 558.833,348.5 561.167,348.5 563.5,348.5C 563.5,349.5 563.5,350.5 563.5,351.5C 559.833,351.5 556.167,351.5 552.5,351.5C 552.5,343.5 552.5,335.5 552.5,327.5 Z"/></g>
<g><path style="opacity:0.736" fill="#7a868b" d="M 565.5,327.5 C 566.833,327.5 568.167,327.5 569.5,327.5C 569.5,334.5 569.5,341.5 569.5,348.5C 571.833,348.5 574.167,348.5 576.5,348.5C 576.5,349.5 576.5,350.5 576.5,351.5C 572.833,351.5 569.167,351.5 565.5,351.5C 565.5,343.5 565.5,335.5 565.5,327.5 Z"/></g>
<g><path style="opacity:0.761" fill="#7a868b" d="M 582.5,327.5 C 584.451,327.227 585.951,327.893 587,329.5C 588.821,336.781 590.321,344.114 591.5,351.5C 590.178,351.67 589.011,351.337 588,350.5C 588.185,346.489 586.352,344.489 582.5,344.5C 582.007,346.806 581.674,349.139 581.5,351.5C 580.167,351.5 578.833,351.5 577.5,351.5C 579.423,343.554 581.089,335.554 582.5,327.5 Z M 584.5,336.5 C 585.788,338.035 585.788,339.701 584.5,341.5C 583.334,339.833 583.334,338.166 584.5,336.5 Z"/></g>
<g><path style="opacity:0.754" fill="#7a868b" d="M 602.5,327.5 C 610.807,327.141 614.807,331.141 614.5,339.5C 615.083,349.261 610.75,353.261 601.5,351.5C 601.199,343.414 601.533,335.414 602.5,327.5 Z M 605.5,330.5 C 609.469,332.095 611.135,335.095 610.5,339.5C 611.05,343.395 609.717,346.395 606.5,348.5C 605.504,342.537 605.171,336.537 605.5,330.5 Z"/></g>
<g><path style="opacity:0.715" fill="#7a868b" d="M 617.5,327.5 C 620.833,327.5 624.167,327.5 627.5,327.5C 627.5,328.833 627.5,330.167 627.5,331.5C 625.5,331.5 623.5,331.5 621.5,331.5C 621.5,333.5 621.5,335.5 621.5,337.5C 623.5,337.5 625.5,337.5 627.5,337.5C 627.5,338.5 627.5,339.5 627.5,340.5C 625.5,340.5 623.5,340.5 621.5,340.5C 621.5,343.167 621.5,345.833 621.5,348.5C 623.5,348.5 625.5,348.5 627.5,348.5C 627.5,349.5 627.5,350.5 627.5,351.5C 624.167,351.5 620.833,351.5 617.5,351.5C 617.5,343.5 617.5,335.5 617.5,327.5 Z"/></g>
<g><path style="opacity:0.964" fill="#f9b426" d="M 9.5,340.5 C 19.5056,340.334 29.5056,340.5 39.5,341C 63.7075,346.536 73.5409,361.703 69,386.5C 64.7597,404.067 53.5931,413.901 35.5,416C 25.1196,416.809 14.7863,416.642 4.5,415.5C 3.50024,390.842 3.16691,366.176 3.5,341.5C 5.73535,341.795 7.73535,341.461 9.5,340.5 Z M 20.5,354.5 C 45.9092,353.083 55.4092,364.75 49,389.5C 42.6275,400.252 33.1275,404.585 20.5,402.5C 20.5,386.5 20.5,370.5 20.5,354.5 Z"/></g>
<g><path style="opacity:0.937" fill="#0e273b" d="M 348.5,345.5 C 355.555,345.27 362.555,345.77 369.5,347C 371.573,347.118 372.907,348.118 373.5,350C 372.589,353.145 371.755,356.312 371,359.5C 370.481,360.516 369.647,361.182 368.5,361.5C 341.826,356.342 331.659,367.008 338,393.5C 341.19,398.513 345.69,401.68 351.5,403C 357.943,403.769 364.277,403.269 370.5,401.5C 371.1,404.999 371.766,408.499 372.5,412C 372.415,413.107 372.081,414.107 371.5,415C 357.246,419.32 343.58,417.986 330.5,411C 319.433,400.456 315.6,387.623 319,372.5C 323.33,357.428 333.163,348.428 348.5,345.5 Z"/></g>
<g><path style="opacity:0.931" fill="#0e273b" d="M 253.5,346.5 C 259.167,346.5 264.833,346.5 270.5,346.5C 270.075,363.215 270.575,379.882 272,396.5C 276.064,403.974 281.898,405.808 289.5,402C 291.652,399.531 293.152,396.698 294,393.5C 294.5,377.837 294.667,362.17 294.5,346.5C 300.167,346.5 305.833,346.5 311.5,346.5C 311.667,361.504 311.5,376.504 311,391.5C 309.208,408.959 299.541,417.626 282,417.5C 263.578,416.743 254.245,407.076 254,388.5C 253.5,374.504 253.333,360.504 253.5,346.5 Z"/></g>
<g><path style="opacity:0.496" fill="#607585" d="M 408.5,354.5 C 406.616,353.618 405.283,352.118 404.5,350C 405.056,349.617 405.389,349.117 405.5,348.5C 406.791,348.737 407.791,348.404 408.5,347.5C 411.518,347.296 414.518,346.963 417.5,346.5C 417.5,348.5 417.5,350.5 417.5,352.5C 416.127,352.657 414.793,352.49 413.5,352C 414.731,350.817 414.731,349.651 413.5,348.5C 412.813,350.274 411.98,351.941 411,353.5C 407.789,347.969 406.956,348.303 408.5,354.5 Z"/></g>
<g><path style="opacity:0.489" fill="#607585" d="M 427.5,347.5 C 427.343,348.873 427.51,350.207 428,351.5C 428.236,349.881 429.069,348.881 430.5,348.5C 430.611,349.117 430.944,349.617 431.5,350C 430.717,352.118 429.384,353.618 427.5,354.5C 427.631,353.624 427.298,352.957 426.5,352.5C 423.947,352.945 421.28,352.945 418.5,352.5C 418.5,350.5 418.5,348.5 418.5,346.5C 421.766,346.433 423.266,348.099 423,351.5C 423.876,349.365 425.376,348.031 427.5,347.5 Z"/></g>
<g><path style="opacity:0.536" fill="#607585" d="M 434.5,350.5 C 434.842,351.338 435.508,351.672 436.5,351.5C 435.608,356.506 436.941,357.506 440.5,354.5C 440.483,356.565 440.15,358.565 439.5,360.5C 438.833,360.5 438.167,360.5 437.5,360.5C 437.179,358.952 436.179,358.285 434.5,358.5C 434.179,356.952 433.179,356.285 431.5,356.5C 430.335,353.495 431.335,351.495 434.5,350.5 Z"/></g>
<g><path style="opacity:0.537" fill="#607585" d="M 396.5,353.5 C 397.5,354.167 398.5,354.833 399.5,355.5C 399.5,356.833 399.5,358.167 399.5,359.5C 398.833,359.5 398.5,359.833 398.5,360.5C 395.833,359.833 394.167,358.167 393.5,355.5C 394.167,355.5 394.833,355.5 395.5,355.5C 395.833,354.833 396.167,354.167 396.5,353.5 Z"/></g>
<g><path style="opacity:0.609" fill="#607585" d="M 427.5,354.5 C 428.514,355.674 429.847,356.34 431.5,356.5C 432.29,357.401 433.29,358.068 434.5,358.5C 435.29,359.401 436.29,360.068 437.5,360.5C 437.833,361.5 438.5,362.167 439.5,362.5C 439.5,363.167 439.833,363.5 440.5,363.5C 441.584,366.004 442.917,368.337 444.5,370.5C 444.328,371.492 444.662,372.158 445.5,372.5C 445.232,374.099 445.566,375.432 446.5,376.5C 446.934,383.404 445.934,390.071 443.5,396.5C 442.833,396.5 442.5,396.833 442.5,397.5C 441.662,397.842 441.328,398.508 441.5,399.5C 440.5,399.833 439.833,400.5 439.5,401.5C 437.5,402.833 435.833,404.5 434.5,406.5C 433.508,406.328 432.842,406.662 432.5,407.5C 430.847,407.66 429.514,408.326 428.5,409.5C 427.209,409.263 426.209,409.596 425.5,410.5C 417.062,411.41 409.062,410.077 401.5,406.5C 400.055,404.937 398.389,403.604 396.5,402.5C 396.5,401.833 396.167,401.5 395.5,401.5C 394.89,399.566 393.89,397.899 392.5,396.5C 392.34,394.847 391.674,393.514 390.5,392.5C 389.338,385.819 389.171,379.152 390,372.5C 385.511,375.543 383.678,374.209 384.5,368.5C 385.5,368.5 386.5,368.5 387.5,368.5C 386.833,367.833 386.167,367.167 385.5,366.5C 387.106,365.641 388.773,365.474 390.5,366C 389.418,364.67 388.751,363.17 388.5,361.5C 391.105,361.621 393.105,362.621 394.5,364.5C 396.167,363.5 397.5,362.167 398.5,360.5C 399.167,360.5 399.5,360.167 399.5,359.5C 400.71,359.068 401.71,358.401 402.5,357.5C 404.819,357.008 406.819,356.008 408.5,354.5C 414.828,353.232 421.161,353.232 427.5,354.5 Z M 413.5,355.5 C 412.659,357.379 412.325,359.379 412.5,361.5C 413.833,361.5 415.167,361.5 416.5,361.5C 416.5,359.5 416.5,357.5 416.5,355.5C 415.5,355.5 414.5,355.5 413.5,355.5 Z M 418.5,355.5 C 418.334,360.179 418.501,364.845 419,369.5C 420.792,367.293 423.126,365.959 426,365.5C 425.84,362.491 427.007,360.325 429.5,359C 426.207,356.758 422.54,355.591 418.5,355.5 Z M 397.5,365.5 C 399.5,365.5 401.5,365.5 403.5,365.5C 403.5,364.167 403.5,362.833 403.5,361.5C 404.833,361.5 406.167,361.5 407.5,361.5C 407.719,360.325 407.386,359.325 406.5,358.5C 402.888,360.129 399.888,362.462 397.5,365.5 Z M 409.5,358.5 C 409.5,360.167 409.5,361.833 409.5,363.5C 404.167,364.167 404.167,364.833 409.5,365.5C 409.833,384.167 410.167,384.167 410.5,365.5C 417.167,364.833 417.167,364.167 410.5,363.5C 410.784,361.585 410.451,359.919 409.5,358.5 Z M 438.5,366.5 C 437.891,364.057 436.391,362.39 434,361.5C 433.177,365.166 434.677,366.833 438.5,366.5 Z M 394.5,364.5 C 394.573,366.027 393.906,367.027 392.5,367.5C 392.285,365.821 392.952,364.821 394.5,364.5 Z M 412.5,367.5 C 412.5,372.167 412.5,376.833 412.5,381.5C 413.833,381.5 415.167,381.5 416.5,381.5C 416.5,376.833 416.5,372.167 416.5,367.5C 415.167,367.5 413.833,367.5 412.5,367.5 Z M 387.5,368.5 C 387.423,369.75 386.756,370.583 385.5,371C 386.025,371.692 386.692,372.192 387.5,372.5C 388.262,371.372 388.929,370.205 389.5,369C 388.906,368.536 388.239,368.369 387.5,368.5 Z M 393.5,370.5 C 392.358,374.071 391.691,377.738 391.5,381.5C 393.833,381.5 396.167,381.5 398.5,381.5C 398.421,380.07 398.754,378.736 399.5,377.5C 396.73,375.737 394.73,373.404 393.5,370.5 Z M 398.5,371.5 C 400.993,374.288 403.326,374.121 405.5,371C 402.961,370.204 400.628,370.371 398.5,371.5 Z M 441.5,371.5 C 441.288,373.384 440.288,374.717 438.5,375.5C 439.074,377.059 439.74,378.559 440.5,380C 440.167,380.333 439.833,380.667 439.5,381C 441.134,381.494 442.801,381.66 444.5,381.5C 444.41,377.786 443.41,374.452 441.5,371.5 Z M 406.5,372.5 C 404.585,375.676 404.585,378.676 406.5,381.5C 407.803,378.355 407.803,375.355 406.5,372.5 Z M 418.5,372.5 C 418.071,382.392 419.404,383.226 422.5,375C 420.867,374.52 419.534,373.687 418.5,372.5 Z M 391.5,383.5 C 391.281,384.675 391.614,385.675 392.5,386.5C 393.696,386.154 393.696,385.654 392.5,385C 394.932,383.913 394.598,383.413 391.5,383.5 Z M 404.5,384.5 C 408.298,383.517 412.298,383.183 416.5,383.5C 416.785,385.288 416.452,386.955 415.5,388.5C 412.388,386.816 409.054,386.15 405.5,386.5C 407.031,385.075 406.698,384.409 404.5,384.5 Z M 418.5,383.5 C 418.336,386.187 418.503,388.854 419,391.5C 420.037,389.782 420.537,387.949 420.5,386C 422.9,385.814 425.234,385.314 427.5,384.5C 424.572,383.516 421.572,383.183 418.5,383.5 Z M 432.5,383.5 C 434.635,385.369 437.302,386.036 440.5,385.5C 440.579,386.93 440.246,388.264 439.5,389.5C 440.531,390.7 441.365,392.034 442,393.5C 443.352,390.28 444.186,386.947 444.5,383.5C 440.5,383.5 436.5,383.5 432.5,383.5 Z M 429.5,384.5 C 429.586,385.496 429.252,386.329 428.5,387C 429.3,391.08 429.8,395.247 430,399.5C 430.2,395.247 430.7,391.08 431.5,387C 430.934,386.005 430.267,385.172 429.5,384.5 Z M 409.5,388.5 C 409.279,389.735 408.612,390.735 407.5,391.5C 409.167,392.833 410.833,392.833 412.5,391.5C 412.121,389.787 411.121,388.787 409.5,388.5 Z M 423.5,390.5 C 424.721,391.028 425.887,391.695 427,392.5C 427.483,391.552 427.649,390.552 427.5,389.5C 425.901,389.232 424.568,389.566 423.5,390.5 Z M 432.5,389.5 C 432.238,390.978 432.571,392.311 433.5,393.5C 434.382,392.24 435.382,391.074 436.5,390C 435.207,389.51 433.873,389.343 432.5,389.5 Z M 403.5,390.5 C 402.418,391.594 401.752,392.927 401.5,394.5C 403.069,397.12 402.736,399.453 400.5,401.5C 402.177,403.76 404.343,405.427 407,406.5C 407.114,403.131 406.614,399.797 405.5,396.5C 401.833,395.5 401.5,393.833 404.5,391.5C 404.376,390.893 404.043,390.56 403.5,390.5 Z M 394.5,393.5 C 394.795,395.423 395.628,397.09 397,398.5C 397.76,396.019 396.926,394.353 394.5,393.5 Z M 425.5,394.5 C 425.489,396.017 424.823,397.184 423.5,398C 429.47,399.216 430.137,398.049 425.5,394.5 Z M 418.5,395.5 C 418.5,399.833 418.5,404.167 418.5,408.5C 422.007,408.693 425.34,408.027 428.5,406.5C 429.052,404.997 429.052,403.331 428.5,401.5C 426.194,401.007 423.861,400.674 421.5,400.5C 421.759,398.011 420.759,396.344 418.5,395.5 Z M 432.5,395.5 C 432.193,397.446 432.193,399.113 432.5,400.5C 435.063,398.665 435.063,396.998 432.5,395.5 Z M 414.5,396.5 C 414.042,399.973 413.042,403.64 411.5,407.5C 413.045,408.452 414.712,408.785 416.5,408.5C 417.089,404.029 416.423,400.029 414.5,396.5 Z M 436.5,400.5 C 437.812,399.855 438.812,398.855 439.5,397.5C 437.533,396.903 436.533,397.903 436.5,400.5 Z"/></g>
<g><path style="opacity:0.94" fill="#f9b426" d="M 159.5,359.5 C 183.276,361.804 192.776,374.804 188,398.5C 183.071,410.887 173.904,417.22 160.5,417.5C 142.531,416.365 133.198,406.865 132.5,389C 132.683,370.987 141.683,361.154 159.5,359.5 Z M 156.5,373.5 C 163.339,372.166 167.839,374.832 170,381.5C 170.851,387.253 170.517,392.92 169,398.5C 161.104,407.198 155.104,405.864 151,394.5C 149.074,386.393 150.908,379.393 156.5,373.5 Z"/></g>
<g><path style="opacity:0.936" fill="#f9b426" d="M 223.5,359.5 C 228.515,360.085 233.515,360.752 238.5,361.5C 237.963,366.186 237.296,370.853 236.5,375.5C 220.02,370.496 212.187,376.496 213,393.5C 218.021,402.805 225.521,405.472 235.5,401.5C 235.833,401.833 236.167,402.167 236.5,402.5C 237.538,406.769 238.205,411.102 238.5,415.5C 227.148,418.846 216.148,418.013 205.5,413C 195.419,404.421 191.919,393.588 195,380.5C 199.987,367.267 209.487,360.267 223.5,359.5 Z"/></g>
<g><path style="opacity:0.742" fill="#7a868b" d="M 592.5,360.5 C 598.51,360.495 598.51,361.995 592.5,365C 595.659,372.802 597.659,380.969 598.5,389.5C 597.325,389.719 596.325,389.386 595.5,388.5C 594.907,386.618 594.24,384.785 593.5,383C 592.207,382.51 590.873,382.343 589.5,382.5C 589.007,384.806 588.674,387.139 588.5,389.5C 587.022,389.762 585.689,389.429 584.5,388.5C 586.651,380.246 588.484,371.912 590,363.5C 591.045,362.627 591.878,361.627 592.5,360.5 Z M 591.5,373.5 C 592.306,374.997 592.972,376.664 593.5,378.5C 592.675,379.386 591.675,379.719 590.5,379.5C 590.833,377.5 591.167,375.5 591.5,373.5 Z"/></g>
<g><path style="opacity:0.956" fill="#f9b426" d="M 74.5,361.5 C 80.5,361.5 86.5,361.5 92.5,361.5C 92.0824,373.895 92.5824,386.228 94,398.5C 100.271,404.398 105.271,403.398 109,395.5C 109.5,384.172 109.667,372.838 109.5,361.5C 115.167,361.5 120.833,361.5 126.5,361.5C 126.315,379.847 126.648,398.181 127.5,416.5C 122.167,416.5 116.833,416.5 111.5,416.5C 111.663,414.143 111.497,411.81 111,409.5C 100.619,419.716 89.952,420.049 79,410.5C 76.6597,406.479 75.3264,402.146 75,397.5C 74.5001,385.505 74.3335,373.505 74.5,361.5 Z"/></g>
<g><path style="opacity:0.889" fill="#7a868b" d="M 496.5,365.5 C 497.5,365.5 498.5,365.5 499.5,365.5C 499.5,373.5 499.5,381.5 499.5,389.5C 498.5,389.5 497.5,389.5 496.5,389.5C 496.5,381.5 496.5,373.5 496.5,365.5 Z"/></g>
<g><path style="opacity:0.728" fill="#7a868b" d="M 503.5,365.5 C 504.978,365.238 506.311,365.571 507.5,366.5C 509.333,370.833 511.167,375.167 513,379.5C 513.499,374.845 513.666,370.179 513.5,365.5C 514.5,365.5 515.5,365.5 516.5,365.5C 516.5,373.5 516.5,381.5 516.5,389.5C 515.178,389.67 514.011,389.337 513,388.5C 511.333,384.5 509.667,380.5 508,376.5C 507.501,380.821 507.334,385.154 507.5,389.5C 506.167,389.5 504.833,389.5 503.5,389.5C 503.5,381.5 503.5,373.5 503.5,365.5 Z"/></g>
<g><path style="opacity:0.757" fill="#7a868b" d="M 520.5,365.5 C 523.833,365.5 527.167,365.5 530.5,365.5C 530.5,366.5 530.5,367.5 530.5,368.5C 528.5,368.5 526.5,368.5 524.5,368.5C 524.5,370.833 524.5,373.167 524.5,375.5C 526.5,375.5 528.5,375.5 530.5,375.5C 530.5,376.5 530.5,377.5 530.5,378.5C 528.5,378.5 526.5,378.5 524.5,378.5C 524.5,382.167 524.5,385.833 524.5,389.5C 523.167,389.5 521.833,389.5 520.5,389.5C 520.5,381.5 520.5,373.5 520.5,365.5 Z"/></g>
<g><path style="opacity:0.759" fill="#7a868b" d="M 536.5,365.5 C 541.352,364.277 544.519,365.944 546,370.5C 546.667,374.833 546.667,379.167 546,383.5C 543.413,390.153 539.413,391.153 534,386.5C 531.415,378.998 532.248,371.998 536.5,365.5 Z M 538.5,368.5 C 540.411,368.574 541.578,369.574 542,371.5C 542.667,375.5 542.667,379.5 542,383.5C 539.723,387.547 538.056,387.214 537,382.5C 536.034,377.61 536.534,372.943 538.5,368.5 Z"/></g>
<g><path style="opacity:0.728" fill="#7a868b" d="M 549.5,365.5 C 552.518,365.335 555.518,365.502 558.5,366C 562.5,370 562.5,374 558.5,378C 560.204,381.482 561.537,385.148 562.5,389C 560.888,389.72 559.388,389.554 558,388.5C 557.667,386.5 557.333,384.5 557,382.5C 556.632,381.09 555.799,380.09 554.5,379.5C 553.513,382.768 553.18,386.102 553.5,389.5C 552.167,389.5 550.833,389.5 549.5,389.5C 549.5,381.5 549.5,373.5 549.5,365.5 Z M 553.5,368.5 C 556.243,368.077 557.576,369.244 557.5,372C 557.505,374.163 556.505,375.663 554.5,376.5C 553.52,373.914 553.187,371.247 553.5,368.5 Z"/></g>
<g><path style="opacity:0.757" fill="#7a868b" d="M 565.5,365.5 C 566.978,365.238 568.311,365.571 569.5,366.5C 570.679,370.885 572.013,375.219 573.5,379.5C 574.821,375.216 575.988,370.883 577,366.5C 578.356,365.62 579.856,365.286 581.5,365.5C 581.833,373.5 582.167,381.5 582.5,389.5C 581.5,389.5 580.5,389.5 579.5,389.5C 578.869,385.196 578.369,380.863 578,376.5C 577.156,380.211 576.156,383.877 575,387.5C 574.29,388.973 573.124,389.64 571.5,389.5C 569.516,373.53 568.183,373.53 567.5,389.5C 566.5,389.5 565.5,389.5 564.5,389.5C 564.644,381.49 564.977,373.49 565.5,365.5 Z"/></g>
<g><path style="opacity:0.728" fill="#7a868b" d="M 598.5,365.5 C 602.5,365.5 606.5,365.5 610.5,365.5C 610.5,366.5 610.5,367.5 610.5,368.5C 609.167,368.5 607.833,368.5 606.5,368.5C 606.5,375.5 606.5,382.5 606.5,389.5C 605.167,389.5 603.833,389.5 602.5,389.5C 602.5,382.5 602.5,375.5 602.5,368.5C 601.167,368.5 599.833,368.5 598.5,368.5C 598.5,367.5 598.5,366.5 598.5,365.5 Z"/></g>
<g><path style="opacity:0.728" fill="#7a868b" d="M 612.5,365.5 C 613.833,365.5 615.167,365.5 616.5,365.5C 616.5,373.5 616.5,381.5 616.5,389.5C 615.167,389.5 613.833,389.5 612.5,389.5C 612.5,381.5 612.5,373.5 612.5,365.5 Z"/></g>
<g><path style="opacity:0.757" fill="#7a868b" d="M 624.5,365.5 C 626.833,365.5 629.167,365.5 631.5,365.5C 631.5,366.5 631.5,367.5 631.5,368.5C 625.875,368.701 623.208,371.701 623.5,377.5C 623.364,381.565 625.03,384.565 628.5,386.5C 630.895,385.477 631.895,386.477 631.5,389.5C 627.091,390.382 623.591,389.048 621,385.5C 618.259,378.06 619.426,371.394 624.5,365.5 Z"/></g>
<g><path style="opacity:0.747" fill="#7a868b" d="M 638.5,365.5 C 640.451,365.227 641.951,365.893 643,367.5C 644.821,374.781 646.321,382.114 647.5,389.5C 646.167,389.5 644.833,389.5 643.5,389.5C 644.092,386.359 643.092,384.026 640.5,382.5C 637.908,384.026 636.908,386.359 637.5,389.5C 636.167,389.5 634.833,389.5 633.5,389.5C 634.911,381.446 636.577,373.446 638.5,365.5 Z M 639.5,374.5 C 640.649,374.791 641.316,375.624 641.5,377C 641.167,377.833 640.833,378.667 640.5,379.5C 639.548,377.955 639.215,376.288 639.5,374.5 Z"/></g>
<g><path style="opacity:0.724" fill="#7a868b" d="M 654.5,365.5 C 655.978,365.238 657.311,365.571 658.5,366.5C 659.432,368.795 660.265,371.129 661,373.5C 662.256,371.246 663.423,368.912 664.5,366.5C 665.833,365.167 667.167,365.167 668.5,366.5C 664.159,373.578 662.493,381.244 663.5,389.5C 662.167,389.5 660.833,389.5 659.5,389.5C 659.665,385.818 659.499,382.152 659,378.5C 657.193,374.244 655.693,369.911 654.5,365.5 Z"/></g>
<g><path style="opacity:0.482" fill="#607585" d="M 450.5,367.5 C 450.328,368.492 450.662,369.158 451.5,369.5C 451.189,370.478 450.522,371.145 449.5,371.5C 448.289,370.726 448.289,369.893 449.5,369C 448.365,368.251 447.365,368.417 446.5,369.5C 447.927,371.718 449.927,373.218 452.5,374C 450.831,376.356 448.831,377.189 446.5,376.5C 446.768,374.901 446.434,373.568 445.5,372.5C 445.672,371.508 445.338,370.842 444.5,370.5C 445.179,366.827 447.179,365.827 450.5,367.5 Z"/></g>
<g><path style="opacity:0.481" fill="#607585" d="M 383.5,374.5 C 385.042,375.301 386.708,375.634 388.5,375.5C 388.5,377.5 388.5,379.5 388.5,381.5C 386.5,381.5 384.5,381.5 382.5,381.5C 382.298,379.05 382.631,376.717 383.5,374.5 Z M 384.5,378.5 C 385.767,379.087 386.767,379.087 387.5,378.5C 386.386,377.224 385.386,377.224 384.5,378.5 Z"/></g>
<g><path style="opacity:0.497" fill="#607585" d="M 385.5,390.5 C 384.25,390.423 383.417,389.756 383,388.5C 382.333,386.5 382.333,384.5 383,382.5C 384.626,382.854 386.459,382.854 388.5,382.5C 388.5,384.5 388.5,386.5 388.5,388.5C 387.127,388.343 385.793,388.51 384.5,389C 385.056,389.383 385.389,389.883 385.5,390.5 Z M 383.5,385.5 C 384.738,386.412 386.072,386.579 387.5,386C 386.182,384.37 384.849,384.203 383.5,385.5 Z"/></g>
<g><path style="opacity:0.52" fill="#607585" d="M 453.5,387.5 C 452.167,387.833 450.833,388.167 449.5,388.5C 447.925,386.886 447.259,384.886 447.5,382.5C 451.938,381.425 453.938,383.092 453.5,387.5 Z M 448.5,385.5 C 449.648,386.895 450.648,386.728 451.5,385C 450.251,384.26 449.251,384.427 448.5,385.5 Z"/></g>
<g><path style="opacity:0.518" fill="#607585" d="M 387.5,396.5 C 389.167,396.5 390.833,396.5 392.5,396.5C 392.739,398.467 392.406,400.301 391.5,402C 392.819,402.195 394.153,402.028 395.5,401.5C 396.167,401.5 396.5,401.833 396.5,402.5C 395.415,404.587 393.749,405.92 391.5,406.5C 391.5,405.833 391.167,405.5 390.5,405.5C 390.532,403.381 389.532,402.048 387.5,401.5C 387.672,400.508 387.338,399.842 386.5,399.5C 387.11,398.609 387.443,397.609 387.5,396.5 Z M 388.5,398.5 C 388.369,399.376 388.702,400.043 389.5,400.5C 392.131,398.995 391.797,398.329 388.5,398.5 Z"/></g>
<g><path style="opacity:0.856" fill="#7a868b" d="M 496.5,402.5 C 500.5,402.5 504.5,402.5 508.5,402.5C 508.5,403.833 508.5,405.167 508.5,406.5C 506.833,406.5 505.167,406.5 503.5,406.5C 503.5,413.167 503.5,419.833 503.5,426.5C 502.5,426.5 501.5,426.5 500.5,426.5C 500.5,419.833 500.5,413.167 500.5,406.5C 499.167,406.5 497.833,406.5 496.5,406.5C 496.5,405.167 496.5,403.833 496.5,402.5 Z"/></g>
<g><path style="opacity:0.713" fill="#7a868b" d="M 510.5,402.5 C 513.833,402.5 517.167,402.5 520.5,402.5C 520.5,403.833 520.5,405.167 520.5,406.5C 518.5,406.5 516.5,406.5 514.5,406.5C 514.5,408.5 514.5,410.5 514.5,412.5C 516.5,412.5 518.5,412.5 520.5,412.5C 520.5,413.833 520.5,415.167 520.5,416.5C 518.5,416.5 516.5,416.5 514.5,416.5C 514.5,418.833 514.5,421.167 514.5,423.5C 516.5,423.5 518.5,423.5 520.5,423.5C 520.5,424.5 520.5,425.5 520.5,426.5C 517.167,426.5 513.833,426.5 510.5,426.5C 510.5,418.5 510.5,410.5 510.5,402.5 Z"/></g>
<g><path style="opacity:0.755" fill="#7a868b" d="M 523.5,402.5 C 524.833,402.5 526.167,402.5 527.5,402.5C 527.5,409.5 527.5,416.5 527.5,423.5C 529.5,423.5 531.5,423.5 533.5,423.5C 533.5,424.5 533.5,425.5 533.5,426.5C 530.167,426.5 526.833,426.5 523.5,426.5C 523.5,418.5 523.5,410.5 523.5,402.5 Z"/></g>
<g><path style="opacity:0.698" fill="#7a868b" d="M 536.5,402.5 C 539.833,402.5 543.167,402.5 546.5,402.5C 546.5,403.833 546.5,405.167 546.5,406.5C 544.5,406.5 542.5,406.5 540.5,406.5C 540.5,408.5 540.5,410.5 540.5,412.5C 542.167,412.5 543.833,412.5 545.5,412.5C 545.5,413.833 545.5,415.167 545.5,416.5C 543.833,416.5 542.167,416.5 540.5,416.5C 540.5,418.833 540.5,421.167 540.5,423.5C 542.5,423.5 544.5,423.5 546.5,423.5C 546.5,424.5 546.5,425.5 546.5,426.5C 543.167,426.5 539.833,426.5 536.5,426.5C 536.5,418.5 536.5,410.5 536.5,402.5 Z"/></g>
<g><path style="opacity:0.716" fill="#7a868b" d="M 554.5,402.5 C 558.241,401.599 560.241,402.932 560.5,406.5C 554.648,406.188 551.981,409.021 552.5,415C 551.981,420.979 554.648,423.812 560.5,423.5C 560.22,427.225 558.22,428.392 554.5,427C 551.337,425.52 549.504,423.02 549,419.5C 547.376,412.54 549.21,406.873 554.5,402.5 Z"/></g>
<g><path style="opacity:0.768" fill="#7a868b" d="M 566.5,402.5 C 570.683,401.846 573.516,403.512 575,407.5C 575.667,412.5 575.667,417.5 575,422.5C 572.525,427.492 569.025,428.492 564.5,425.5C 560.102,417.309 560.769,409.643 566.5,402.5 Z M 567.5,406.5 C 568.675,406.281 569.675,406.614 570.5,407.5C 573.439,413.26 572.939,418.593 569,423.5C 568.228,423.355 567.561,423.022 567,422.5C 564.921,417.064 565.088,411.73 567.5,406.5 Z"/></g>
<g><path style="opacity:0.757" fill="#7a868b" d="M 579.5,402.5 C 580.978,402.238 582.311,402.571 583.5,403.5C 584.901,408.203 586.401,412.87 588,417.5C 589.328,412.522 590.495,407.522 591.5,402.5C 592.833,402.5 594.167,402.5 595.5,402.5C 596.166,410.483 596.499,418.483 596.5,426.5C 595.5,426.5 594.5,426.5 593.5,426.5C 592.8,410.599 591.466,410.599 589.5,426.5C 588.178,426.67 587.011,426.337 586,425.5C 584.844,421.877 583.844,418.211 583,414.5C 582.608,418.528 582.108,422.528 581.5,426.5C 580.5,426.5 579.5,426.5 578.5,426.5C 579.099,418.514 579.432,410.514 579.5,402.5 Z"/></g>
<g><path style="opacity:0.727" fill="#7a868b" d="M 600.5,402.5 C 601.833,402.5 603.167,402.5 604.5,402.5C 604.334,409.175 604.5,415.842 605,422.5C 606.714,423.925 608.047,423.592 609,421.5C 609.5,415.175 609.666,408.842 609.5,402.5C 610.833,402.5 612.167,402.5 613.5,402.5C 613.8,409.896 613.3,417.229 612,424.5C 607.845,428.704 604.178,428.371 601,423.5C 600.5,416.508 600.334,409.508 600.5,402.5 Z"/></g>
<g><path style="opacity:0.812" fill="#7a868b" d="M 617.5,402.5 C 618.822,402.33 619.989,402.663 621,403.5C 622.389,407.944 624.056,412.277 626,416.5C 626.499,411.845 626.666,407.179 626.5,402.5C 627.5,402.5 628.5,402.5 629.5,402.5C 629.5,410.5 629.5,418.5 629.5,426.5C 628.178,426.67 627.011,426.337 626,425.5C 624.333,421.5 622.667,417.5 621,413.5C 620.501,417.821 620.334,422.154 620.5,426.5C 619.5,426.5 618.5,426.5 617.5,426.5C 617.5,418.5 617.5,410.5 617.5,402.5 Z"/></g>
<g><path style="opacity:0.728" fill="#7a868b" d="M 633.5,402.5 C 634.833,402.5 636.167,402.5 637.5,402.5C 637.5,410.5 637.5,418.5 637.5,426.5C 636.167,426.5 634.833,426.5 633.5,426.5C 633.5,418.5 633.5,410.5 633.5,402.5 Z"/></g>
<g><path style="opacity:0.738" fill="#7a868b" d="M 647.5,402.5 C 649.167,402.5 650.833,402.5 652.5,402.5C 652.5,403.833 652.5,405.167 652.5,406.5C 646.667,406.169 644.001,409.002 644.5,415C 644.001,420.998 646.667,423.831 652.5,423.5C 652.67,424.822 652.337,425.989 651.5,427C 645.067,427.907 641.567,425.074 641,418.5C 639.663,411.528 641.829,406.194 647.5,402.5 Z"/></g>
<g><path style="opacity:0.749" fill="#7a868b" d="M 659.5,402.5 C 661.451,402.227 662.951,402.893 664,404.5C 665.695,411.808 667.195,419.141 668.5,426.5C 667.167,426.5 665.833,426.5 664.5,426.5C 665.595,421.614 663.928,419.948 659.5,421.5C 658.691,423.071 658.357,424.738 658.5,426.5C 657.167,426.5 655.833,426.5 654.5,426.5C 656.167,418.499 657.834,410.499 659.5,402.5 Z M 661.5,411.5 C 662.788,413.035 662.788,414.701 661.5,416.5C 660.334,414.833 660.334,413.166 661.5,411.5 Z"/></g>
<g><path style="opacity:0.746" fill="#7a868b" d="M 676.5,402.5 C 678.167,402.5 679.833,402.5 681.5,402.5C 681.5,403.833 681.5,405.167 681.5,406.5C 679.533,406.261 677.699,406.594 676,407.5C 673.167,411.994 672.834,416.661 675,421.5C 677.725,422.642 680.225,424.142 682.5,426C 677.609,428.258 673.776,427.092 671,422.5C 669.294,416.704 669.794,411.038 672.5,405.5C 673.901,404.479 675.235,403.479 676.5,402.5 Z"/></g>
<g><path style="opacity:0.728" fill="#7a868b" d="M 684.5,402.5 C 685.833,402.5 687.167,402.5 688.5,402.5C 688.5,410.5 688.5,418.5 688.5,426.5C 687.167,426.5 685.833,426.5 684.5,426.5C 684.5,418.5 684.5,410.5 684.5,402.5 Z"/></g>
<g><path style="opacity:0.734" fill="#7a868b" d="M 696.5,402.5 C 701.118,401.949 703.951,403.949 705,408.5C 706.245,414.706 705.412,420.539 702.5,426C 699.54,428.052 696.707,427.886 694,425.5C 691.135,419.309 690.801,412.976 693,406.5C 693.69,404.65 694.856,403.316 696.5,402.5 Z M 697.5,406.5 C 699.124,406.36 700.29,407.027 701,408.5C 701.667,412.833 701.667,417.167 701,421.5C 698.918,424.15 697.251,423.816 696,420.5C 695.034,415.61 695.534,410.943 697.5,406.5 Z"/></g>
<g><path style="opacity:0.736" fill="#7a868b" d="M 708.5,402.5 C 709.978,402.238 711.311,402.571 712.5,403.5C 714.431,408.127 716.265,412.794 718,417.5C 718.499,412.511 718.666,407.511 718.5,402.5C 719.5,402.5 720.5,402.5 721.5,402.5C 721.5,410.5 721.5,418.5 721.5,426.5C 720.022,426.762 718.689,426.429 717.5,425.5C 716,421.833 714.5,418.167 713,414.5C 712.501,418.486 712.334,422.486 712.5,426.5C 711.167,426.5 709.833,426.5 708.5,426.5C 708.5,418.5 708.5,410.5 708.5,402.5 Z"/></g>
<g><path style="opacity:0.713" fill="#7a868b" d="M 725.5,402.5 C 728.833,402.5 732.167,402.5 735.5,402.5C 735.5,403.833 735.5,405.167 735.5,406.5C 733.5,406.5 731.5,406.5 729.5,406.5C 729.5,408.5 729.5,410.5 729.5,412.5C 731.5,412.5 733.5,412.5 735.5,412.5C 735.5,413.833 735.5,415.167 735.5,416.5C 733.5,416.5 731.5,416.5 729.5,416.5C 729.5,418.833 729.5,421.167 729.5,423.5C 731.5,423.5 733.5,423.5 735.5,423.5C 735.5,424.5 735.5,425.5 735.5,426.5C 732.167,426.5 728.833,426.5 725.5,426.5C 725.5,418.5 725.5,410.5 725.5,402.5 Z"/></g>
<g><path style="opacity:0.742" fill="#7a868b" d="M 742.5,402.5 C 744.977,402.051 746.977,402.717 748.5,404.5C 746.941,406.131 744.941,406.964 742.5,407C 741.978,407.561 741.645,408.228 741.5,409C 743.347,411.825 745.514,414.325 748,416.5C 749.855,425.478 746.355,428.812 737.5,426.5C 737.367,422.782 738.867,421.782 742,423.5C 743.871,423.291 745.038,422.291 745.5,420.5C 743.841,417.349 741.674,414.682 739,412.5C 737.581,408.082 738.748,404.749 742.5,402.5 Z"/></g>
<g><path style="opacity:0.491" fill="#607585" d="M 401.5,406.5 C 405.776,410.277 405.109,412.611 399.5,413.5C 399.5,412.833 399.167,412.5 398.5,412.5C 398.389,411.883 398.056,411.383 397.5,411C 398.283,408.882 399.616,407.382 401.5,406.5 Z M 400.5,409.5 C 400.369,410.239 400.536,410.906 401,411.5C 403.168,410.178 403.001,409.511 400.5,409.5 Z"/></g>
<g><path style="opacity:0.505" fill="#607585" d="M 434.5,406.5 C 436.5,406.5 437.5,407.5 437.5,409.5C 438.338,409.842 438.672,410.508 438.5,411.5C 437.833,411.5 437.5,411.833 437.5,412.5C 436.391,412.443 435.391,412.11 434.5,411.5C 433.833,410.167 433.167,408.833 432.5,407.5C 433.492,407.672 434.158,407.338 434.5,406.5 Z"/></g>
<g><path style="opacity:0.484" fill="#607585" d="M 414.5,411.5 C 415.643,411.908 416.643,412.575 417.5,413.5C 416.011,413.533 414.678,414.033 413.5,415C 414.678,415.967 416.011,416.467 417.5,416.5C 414.787,417.948 412.787,417.281 411.5,414.5C 412.34,413.265 413.34,412.265 414.5,411.5 Z"/></g>
<g><path style="opacity:0.497" fill="#607585" d="M 421.5,411.5 C 422.675,411.281 423.675,411.614 424.5,412.5C 423.948,414.003 423.948,415.669 424.5,417.5C 422.473,417.662 420.473,417.495 418.5,417C 418.966,415.701 418.966,414.201 418.5,412.5C 419.791,412.737 420.791,412.404 421.5,411.5 Z"/></g>
</svg>
